<?xml version="1.0" encoding="utf-8" standalone="no"?>
<!DOCTYPE svg PUBLIC "-//W3C//DTD SVG 1.1//EN"
  "http://www.w3.org/Graphics/SVG/1.1/DTD/svg11.dtd">
<svg xmlns:xlink="http://www.w3.org/1999/xlink" width="460.8pt" height="345.6pt" viewBox="0 0 460.8 345.6" xmlns="http://www.w3.org/2000/svg" version="1.1">
 <metadata>
  <rdf:RDF xmlns:dc="http://purl.org/dc/elements/1.1/" xmlns:cc="http://creativecommons.org/ns#" xmlns:rdf="http://www.w3.org/1999/02/22-rdf-syntax-ns#">
   <cc:Work>
    <dc:type rdf:resource="http://purl.org/dc/dcmitype/StillImage"/>
    <dc:date>2024-06-06T22:48:15.572216</dc:date>
    <dc:format>image/svg+xml</dc:format>
    <dc:creator>
     <cc:Agent>
      <dc:title>Matplotlib v3.8.1, https://matplotlib.org/</dc:title>
     </cc:Agent>
    </dc:creator>
   </cc:Work>
  </rdf:RDF>
 </metadata>
 <defs>
  <style type="text/css">*{stroke-linejoin: round; stroke-linecap: butt}</style>
 </defs>
 <g id="figure_1">
  <g id="patch_1">
   <path d="M 0 345.6 
L 460.8 345.6 
L 460.8 0 
L 0 0 
z
" style="fill: #ffffff"/>
  </g>
  <g id="axes_1">
   <g id="patch_2">
    <path d="M 57.6 307.584 
L 414.72 307.584 
L 414.72 41.472 
L 57.6 41.472 
z
" style="fill: #ffffff"/>
   </g>
   <g id="PolyCollection_1">
    <defs>
     <path id="m37b9a1200f" d="M 73.832727 -68.13804 
L 73.832727 -50.112 
L 77.112066 -54.004138 
L 80.391405 -61.290947 
L 83.670744 -68.493727 
L 86.950083 -73.772332 
L 90.229421 -78.93764 
L 93.50876 -83.849921 
L 96.788099 -88.271902 
L 100.067438 -92.593329 
L 103.346777 -96.737517 
L 106.626116 -100.615723 
L 109.905455 -104.652733 
L 113.184793 -108.161012 
L 116.464132 -111.807266 
L 119.743471 -115.561462 
L 123.02281 -119.527501 
L 126.302149 -123.617092 
L 129.581488 -127.136159 
L 132.860826 -130.947824 
L 136.140165 -134.27302 
L 139.419504 -137.979973 
L 142.698843 -141.838265 
L 145.978182 -145.272035 
L 149.257521 -148.574526 
L 152.53686 -151.913633 
L 155.816198 -155.464899 
L 159.095537 -157.806124 
L 162.374876 -161.21369 
L 165.654215 -164.225113 
L 168.933554 -167.791383 
L 172.212893 -170.198746 
L 175.492231 -173.06608 
L 178.77157 -175.130082 
L 182.050909 -178.155145 
L 185.330248 -180.691762 
L 188.609587 -183.316353 
L 191.888926 -186.831807 
L 195.168264 -189.300867 
L 198.447603 -191.54989 
L 201.726942 -194.55841 
L 205.006281 -197.285722 
L 208.28562 -199.530427 
L 211.564959 -201.980671 
L 214.844298 -204.550613 
L 218.123636 -206.94822 
L 221.402975 -208.70547 
L 224.682314 -210.639851 
L 227.961653 -213.024693 
L 231.240992 -214.755336 
L 234.520331 -217.623984 
L 237.799669 -219.496347 
L 241.079008 -222.12009 
L 244.358347 -224.204357 
L 247.637686 -226.59819 
L 250.917025 -228.551793 
L 254.196364 -230.339078 
L 257.475702 -232.433011 
L 260.755041 -234.382702 
L 264.03438 -236.444927 
L 267.313719 -238.827754 
L 270.593058 -240.815897 
L 273.872397 -242.529823 
L 277.151736 -245.039439 
L 280.431074 -246.961078 
L 283.710413 -249.268067 
L 286.989752 -251.783379 
L 290.269091 -254.026419 
L 293.54843 -255.783215 
L 296.827769 -257.637186 
L 300.107107 -259.223573 
L 303.386446 -260.68562 
L 306.665785 -262.780505 
L 309.945124 -264.555152 
L 313.224463 -265.8957 
L 316.503802 -267.249868 
L 319.78314 -268.62456 
L 323.062479 -269.648477 
L 326.341818 -270.7675 
L 329.621157 -272.093345 
L 332.900496 -272.944331 
L 336.179835 -274.010546 
L 339.459174 -275.186005 
L 342.738512 -276.605244 
L 346.017851 -277.648812 
L 349.29719 -278.791444 
L 352.576529 -279.659142 
L 355.855868 -280.793764 
L 359.135207 -281.964183 
L 362.414545 -283.038814 
L 365.693884 -283.958158 
L 368.973223 -285.150594 
L 372.252562 -285.828203 
L 375.531901 -286.638317 
L 378.81124 -287.460432 
L 382.090579 -288.107984 
L 385.369917 -288.717815 
L 388.649256 -289.432403 
L 391.928595 -290.67239 
L 395.207934 -291.277226 
L 398.487273 -292.032 
L 398.487273 -292.032 
L 398.487273 -292.032 
L 395.207934 -292.032 
L 391.928595 -291.999182 
L 388.649256 -292.032 
L 385.369917 -292.032 
L 382.090579 -291.935524 
L 378.81124 -291.78825 
L 375.531901 -291.474546 
L 372.252562 -291.205516 
L 368.973223 -291.046381 
L 365.693884 -290.700001 
L 362.414545 -290.290233 
L 359.135207 -289.909594 
L 355.855868 -289.748989 
L 352.576529 -289.402333 
L 349.29719 -289.08452 
L 346.017851 -288.797649 
L 342.738512 -288.366932 
L 339.459174 -287.829751 
L 336.179835 -287.092088 
L 332.900496 -286.733712 
L 329.621157 -286.156418 
L 326.341818 -285.611822 
L 323.062479 -285.270677 
L 319.78314 -284.812146 
L 316.503802 -284.394337 
L 313.224463 -283.749628 
L 309.945124 -283.136829 
L 306.665785 -282.27451 
L 303.386446 -281.401587 
L 300.107107 -280.438446 
L 296.827769 -279.728788 
L 293.54843 -278.601195 
L 290.269091 -277.692828 
L 286.989752 -277.037772 
L 283.710413 -276.131216 
L 280.431074 -275.270289 
L 277.151736 -273.912267 
L 273.872397 -272.852566 
L 270.593058 -271.932735 
L 267.313719 -270.844319 
L 264.03438 -269.972101 
L 260.755041 -268.858441 
L 257.475702 -267.89407 
L 254.196364 -266.919337 
L 250.917025 -265.482835 
L 247.637686 -264.294587 
L 244.358347 -262.908418 
L 241.079008 -261.199692 
L 237.799669 -260.022066 
L 234.520331 -258.815827 
L 231.240992 -257.279717 
L 227.961653 -255.460381 
L 224.682314 -254.242174 
L 221.402975 -253.127832 
L 218.123636 -251.998361 
L 214.844298 -250.777626 
L 211.564959 -248.878299 
L 208.28562 -247.400723 
L 205.006281 -245.618058 
L 201.726942 -244.040152 
L 198.447603 -242.64842 
L 195.168264 -240.526141 
L 191.888926 -238.703023 
L 188.609587 -236.871232 
L 185.330248 -234.839884 
L 182.050909 -232.874767 
L 178.77157 -230.491167 
L 175.492231 -228.835551 
L 172.212893 -226.831744 
L 168.933554 -224.684364 
L 165.654215 -222.650937 
L 162.374876 -221.033778 
L 159.095537 -219.292528 
L 155.816198 -217.412147 
L 152.53686 -215.474021 
L 149.257521 -213.309344 
L 145.978182 -211.059992 
L 142.698843 -208.780773 
L 139.419504 -206.233729 
L 136.140165 -203.969503 
L 132.860826 -201.30812 
L 129.581488 -198.682323 
L 126.302149 -196.634202 
L 123.02281 -193.594944 
L 119.743471 -191.100467 
L 116.464132 -188.688105 
L 113.184793 -185.391941 
L 109.905455 -183.337587 
L 106.626116 -179.899763 
L 103.346777 -176.484916 
L 100.067438 -173.133118 
L 96.788099 -167.924576 
L 93.50876 -163.337098 
L 90.229421 -157.943929 
L 86.950083 -152.146148 
L 83.670744 -144.399397 
L 80.391405 -134.515891 
L 77.112066 -120.52989 
L 73.832727 -68.13804 
z
" style="stroke: #d81b60; stroke-opacity: 0.1"/>
    </defs>
    <g clip-path="url(#pc7fe39b143)">
     <use xlink:href="#m37b9a1200f" x="0" y="345.6" style="fill: #d81b60; fill-opacity: 0.1; stroke: #d81b60; stroke-opacity: 0.1"/>
    </g>
   </g>
   <g id="matplotlib.axis_1">
    <g id="xtick_1">
     <g id="line2d_1">
      <path d="M 73.832727 307.584 
L 73.832727 41.472 
" clip-path="url(#pc7fe39b143)" style="fill: none; stroke: #b0b0b0; stroke-width: 0.8; stroke-linecap: square"/>
     </g>
     <g id="line2d_2">
      <defs>
       <path id="mbe10a5bfd0" d="M 0 0 
L 0 3.5 
" style="stroke: #000000; stroke-width: 0.8"/>
      </defs>
      <g>
       <use xlink:href="#mbe10a5bfd0" x="73.832727" y="307.584" style="stroke: #000000; stroke-width: 0.8"/>
      </g>
     </g>
     <g id="text_1">
      <!-- 0.0 -->
      <g transform="translate(66.204602 321.857437) scale(0.1 -0.1)">
       <defs>
        <path id="Inter-Regular-30" d="M 2000 -64 
C 3027 -64 3618 807 3618 2327 
C 3618 3836 3018 4718 2000 4718 
C 982 4718 382 3836 382 2327 
C 382 807 973 -64 2000 -64 
z
M 2000 436 
C 1323 436 927 1116 927 2327 
C 927 3536 1327 4227 2000 4227 
C 2673 4227 3073 3536 3073 2327 
C 3073 1116 2677 436 2000 436 
z
" transform="scale(0.015625)"/>
        <path id="Inter-Regular-2e" d="M 882 -36 
C 1107 -36 1291 148 1291 373 
C 1291 598 1107 782 882 782 
C 657 782 473 598 473 373 
C 473 148 657 -36 882 -36 
z
" transform="scale(0.015625)"/>
       </defs>
       <use xlink:href="#Inter-Regular-30"/>
       <use xlink:href="#Inter-Regular-2e" x="62.500015"/>
       <use xlink:href="#Inter-Regular-30" x="90.056839"/>
      </g>
     </g>
    </g>
    <g id="xtick_2">
     <g id="line2d_3">
      <path d="M 138.763636 307.584 
L 138.763636 41.472 
" clip-path="url(#pc7fe39b143)" style="fill: none; stroke: #b0b0b0; stroke-width: 0.8; stroke-linecap: square"/>
     </g>
     <g id="line2d_4">
      <g>
       <use xlink:href="#mbe10a5bfd0" x="138.763636" y="307.584" style="stroke: #000000; stroke-width: 0.8"/>
      </g>
     </g>
     <g id="text_2">
      <!-- 0.2 -->
      <g transform="translate(131.23473 321.857437) scale(0.1 -0.1)">
       <defs>
        <path id="Inter-Regular-32" d="M 482 0 
L 3418 0 
L 3418 500 
L 1255 500 
L 1255 536 
L 2300 1655 
C 3100 2511 3336 2911 3336 3427 
C 3336 4145 2755 4718 1936 4718 
C 1121 4718 500 4164 500 3345 
L 1036 3345 
C 1036 3875 1380 4227 1918 4227 
C 2423 4227 2809 3918 2809 3427 
C 2809 2998 2557 2680 2018 2091 
L 482 409 
L 482 0 
z
" transform="scale(0.015625)"/>
       </defs>
       <use xlink:href="#Inter-Regular-30"/>
       <use xlink:href="#Inter-Regular-2e" x="62.500015"/>
       <use xlink:href="#Inter-Regular-32" x="90.056839"/>
      </g>
     </g>
    </g>
    <g id="xtick_3">
     <g id="line2d_5">
      <path d="M 203.694545 307.584 
L 203.694545 41.472 
" clip-path="url(#pc7fe39b143)" style="fill: none; stroke: #b0b0b0; stroke-width: 0.8; stroke-linecap: square"/>
     </g>
     <g id="line2d_6">
      <g>
       <use xlink:href="#mbe10a5bfd0" x="203.694545" y="307.584" style="stroke: #000000; stroke-width: 0.8"/>
      </g>
     </g>
     <g id="text_3">
      <!-- 0.4 -->
      <g transform="translate(195.981264 321.857437) scale(0.1 -0.1)">
       <defs>
        <path id="Inter-Regular-34" d="M 373 955 
L 2564 955 
L 2564 0 
L 3100 0 
L 3100 955 
L 3736 955 
L 3736 1455 
L 3100 1455 
L 3100 4655 
L 2418 4655 
L 373 1418 
L 373 955 
z
M 2564 1455 
L 982 1455 
L 982 1491 
L 2527 3936 
L 2564 3936 
L 2564 1455 
z
" transform="scale(0.015625)"/>
       </defs>
       <use xlink:href="#Inter-Regular-30"/>
       <use xlink:href="#Inter-Regular-2e" x="62.500015"/>
       <use xlink:href="#Inter-Regular-34" x="90.056839"/>
      </g>
     </g>
    </g>
    <g id="xtick_4">
     <g id="line2d_7">
      <path d="M 268.625455 307.584 
L 268.625455 41.472 
" clip-path="url(#pc7fe39b143)" style="fill: none; stroke: #b0b0b0; stroke-width: 0.8; stroke-linecap: square"/>
     </g>
     <g id="line2d_8">
      <g>
       <use xlink:href="#mbe10a5bfd0" x="268.625455" y="307.584" style="stroke: #000000; stroke-width: 0.8"/>
      </g>
     </g>
     <g id="text_4">
      <!-- 0.6 -->
      <g transform="translate(261.004361 321.857437) scale(0.1 -0.1)">
       <defs>
        <path id="Inter-Regular-36" d="M 2027 -64 
C 2968 -75 3582 634 3582 1500 
C 3582 2400 2916 3045 2118 3045 
C 1639 3045 1227 2811 973 2427 
L 936 2427 
C 939 3561 1380 4218 2100 4218 
C 2591 4218 2886 3909 2991 3491 
L 3546 3491 
C 3432 4214 2882 4718 2100 4718 
C 1052 4718 409 3791 409 2145 
C 409 425 1264 -55 2027 -64 
z
M 2027 436 
C 1443 436 1016 934 1018 1491 
C 1021 2048 1468 2545 2046 2545 
C 2616 2545 3036 2077 3036 1500 
C 3036 909 2598 436 2027 436 
z
" transform="scale(0.015625)"/>
       </defs>
       <use xlink:href="#Inter-Regular-30"/>
       <use xlink:href="#Inter-Regular-2e" x="62.500015"/>
       <use xlink:href="#Inter-Regular-36" x="90.056839"/>
      </g>
     </g>
    </g>
    <g id="xtick_5">
     <g id="line2d_9">
      <path d="M 333.556364 307.584 
L 333.556364 41.472 
" clip-path="url(#pc7fe39b143)" style="fill: none; stroke: #b0b0b0; stroke-width: 0.8; stroke-linecap: square"/>
     </g>
     <g id="line2d_10">
      <g>
       <use xlink:href="#mbe10a5bfd0" x="333.556364" y="307.584" style="stroke: #000000; stroke-width: 0.8"/>
      </g>
     </g>
     <g id="text_5">
      <!-- 0.8 -->
      <g transform="translate(325.970426 321.857437) scale(0.1 -0.1)">
       <defs>
        <path id="Inter-Regular-38" d="M 1973 -64 
C 2902 -64 3550 480 3555 1236 
C 3550 1825 3157 2325 2655 2418 
L 2655 2445 
C 3091 2559 3377 2986 3382 3482 
C 3377 4191 2782 4718 1973 4718 
C 1155 4718 559 4191 564 3482 
C 559 2986 846 2559 1291 2445 
L 1291 2418 
C 780 2325 386 1825 391 1236 
C 386 480 1034 -64 1973 -64 
z
M 1973 436 
C 1334 436 941 764 946 1264 
C 941 1789 1375 2164 1973 2164 
C 2561 2164 2996 1789 3000 1264 
C 2996 764 2602 436 1973 436 
z
M 1973 2645 
C 1464 2645 1105 2964 1109 3445 
C 1105 3918 1450 4227 1973 4227 
C 2486 4227 2832 3918 2836 3445 
C 2832 2964 2473 2645 1973 2645 
z
" transform="scale(0.015625)"/>
       </defs>
       <use xlink:href="#Inter-Regular-30"/>
       <use xlink:href="#Inter-Regular-2e" x="62.500015"/>
       <use xlink:href="#Inter-Regular-38" x="90.056839"/>
      </g>
     </g>
    </g>
    <g id="xtick_6">
     <g id="line2d_11">
      <path d="M 398.487273 307.584 
L 398.487273 41.472 
" clip-path="url(#pc7fe39b143)" style="fill: none; stroke: #b0b0b0; stroke-width: 0.8; stroke-linecap: square"/>
     </g>
     <g id="line2d_12">
      <g>
       <use xlink:href="#mbe10a5bfd0" x="398.487273" y="307.584" style="stroke: #000000; stroke-width: 0.8"/>
      </g>
     </g>
     <g id="text_6">
      <!-- 1.0 -->
      <g transform="translate(391.661491 321.857437) scale(0.1 -0.1)">
       <defs>
        <path id="Inter-Regular-31" d="M 2118 4655 
L 1555 4655 
L 391 3882 
L 391 3309 
L 1527 4064 
L 1555 4064 
L 1555 0 
L 2118 0 
L 2118 4655 
z
" transform="scale(0.015625)"/>
       </defs>
       <use xlink:href="#Inter-Regular-31"/>
       <use xlink:href="#Inter-Regular-2e" x="46.448868"/>
       <use xlink:href="#Inter-Regular-30" x="74.005692"/>
      </g>
     </g>
    </g>
    <g id="text_7">
     <!-- False-Positive Rate -->
     <g transform="translate(190.584219 335.176187) scale(0.1 -0.1)">
      <defs>
       <path id="Inter-Regular-46" d="M 564 0 
L 1127 0 
L 1127 2082 
L 3146 2082 
L 3146 2582 
L 1127 2582 
L 1127 4155 
L 3355 4155 
L 3355 4655 
L 564 4655 
L 564 0 
z
" transform="scale(0.015625)"/>
       <path id="Inter-Regular-61" d="M 1518 -82 
C 2127 -82 2446 245 2555 473 
L 2582 473 
L 2582 0 
L 3118 0 
L 3118 2300 
C 3118 3409 2273 3536 1827 3536 
C 1300 3536 700 3355 427 2718 
L 936 2536 
C 1055 2791 1334 3064 1846 3064 
C 2339 3064 2582 2802 2582 2355 
L 2582 2336 
C 2582 2077 2318 2100 1682 2018 
C 1034 1934 327 1791 327 991 
C 327 309 855 -82 1518 -82 
z
M 1600 400 
C 1173 400 864 591 864 964 
C 864 1373 1236 1500 1655 1555 
C 1882 1582 2491 1645 2582 1755 
L 2582 1264 
C 2582 827 2236 400 1600 400 
z
" transform="scale(0.015625)"/>
       <path id="Inter-Regular-6c" d="M 1027 4655 
L 491 4655 
L 491 0 
L 1027 0 
L 1027 4655 
z
" transform="scale(0.015625)"/>
       <path id="Inter-Regular-73" d="M 2964 2709 
C 2796 3205 2418 3536 1727 3536 
C 991 3536 446 3118 446 2527 
C 446 2045 732 1723 1373 1573 
L 1955 1436 
C 2307 1355 2473 1186 2473 945 
C 2473 645 2155 400 1655 400 
C 1216 400 941 589 846 964 
L 336 836 
C 461 243 950 -73 1664 -73 
C 2475 -73 3027 370 3027 973 
C 3027 1459 2723 1766 2100 1918 
L 1582 2045 
C 1168 2148 982 2286 982 2555 
C 982 2855 1300 3073 1727 3073 
C 2196 3073 2389 2814 2482 2573 
L 2964 2709 
z
" transform="scale(0.015625)"/>
       <path id="Inter-Regular-65" d="M 1955 -73 
C 2664 -73 3182 282 3346 809 
L 2827 955 
C 2691 591 2375 409 1955 409 
C 1325 409 891 816 866 1564 
L 3400 1564 
L 3400 1791 
C 3400 3091 2627 3536 1900 3536 
C 955 3536 327 2791 327 1718 
C 327 645 946 -73 1955 -73 
z
M 866 2027 
C 902 2570 1286 3055 1900 3055 
C 2482 3055 2855 2618 2855 2027 
L 866 2027 
z
" transform="scale(0.015625)"/>
       <path id="Inter-Regular-2d" d="M 2491 2245 
L 455 2245 
L 455 1745 
L 2491 1745 
L 2491 2245 
z
" transform="scale(0.015625)"/>
       <path id="Inter-Regular-50" d="M 564 0 
L 1127 0 
L 1127 1700 
L 2146 1700 
C 3230 1700 3718 2359 3718 3182 
C 3718 4005 3230 4655 2136 4655 
L 564 4655 
L 564 0 
z
M 1127 2200 
L 1127 4155 
L 2118 4155 
C 2875 4155 3164 3741 3164 3182 
C 3164 2623 2875 2200 2127 2200 
L 1127 2200 
z
" transform="scale(0.015625)"/>
       <path id="Inter-Regular-6f" d="M 1909 -73 
C 2855 -73 3491 645 3491 1727 
C 3491 2818 2855 3536 1909 3536 
C 964 3536 327 2818 327 1727 
C 327 645 964 -73 1909 -73 
z
M 1909 409 
C 1191 409 864 1027 864 1727 
C 864 2427 1191 3055 1909 3055 
C 2627 3055 2955 2427 2955 1727 
C 2955 1027 2627 409 1909 409 
z
" transform="scale(0.015625)"/>
       <path id="Inter-Regular-69" d="M 491 0 
L 1027 0 
L 1027 3491 
L 491 3491 
L 491 0 
z
M 764 4073 
C 973 4073 1146 4236 1146 4436 
C 1146 4636 973 4800 764 4800 
C 555 4800 382 4636 382 4436 
C 382 4236 555 4073 764 4073 
z
" transform="scale(0.015625)"/>
       <path id="Inter-Regular-74" d="M 2009 3491 
L 1264 3491 
L 1264 4327 
L 727 4327 
L 727 3491 
L 200 3491 
L 200 3036 
L 727 3036 
L 727 855 
C 727 245 1218 -45 1673 -45 
C 1873 -45 2000 -9 2073 18 
L 1964 500 
C 1918 491 1846 473 1727 473 
C 1491 473 1264 545 1264 1000 
L 1264 3036 
L 2009 3036 
L 2009 3491 
z
" transform="scale(0.015625)"/>
       <path id="Inter-Regular-76" d="M 3346 3491 
L 2764 3491 
L 1800 709 
L 1764 709 
L 800 3491 
L 218 3491 
L 1509 0 
L 2055 0 
L 3346 3491 
z
" transform="scale(0.015625)"/>
       <path id="Inter-Regular-20" transform="scale(0.015625)"/>
       <path id="Inter-Regular-52" d="M 564 0 
L 1127 0 
L 1127 1818 
L 2146 1818 
C 2186 1818 2225 1818 2264 1820 
L 3246 0 
L 3900 0 
L 2848 1923 
C 3441 2125 3718 2609 3718 3227 
C 3718 4050 3227 4655 2136 4655 
L 564 4655 
L 564 0 
z
M 1127 2327 
L 1127 4155 
L 2118 4155 
C 2873 4155 3164 3786 3164 3227 
C 3164 2668 2873 2327 2127 2327 
L 1127 2327 
z
" transform="scale(0.015625)"/>
      </defs>
      <use xlink:href="#Inter-Regular-46"/>
      <use xlink:href="#Inter-Regular-61" x="58.66478"/>
      <use xlink:href="#Inter-Regular-6c" x="115.056839"/>
      <use xlink:href="#Inter-Regular-73" x="138.778427"/>
      <use xlink:href="#Inter-Regular-65" x="191.051163"/>
      <use xlink:href="#Inter-Regular-2d" x="249.28981"/>
      <use xlink:href="#Inter-Regular-50" x="295.312546"/>
      <use xlink:href="#Inter-Regular-6f" x="358.80687"/>
      <use xlink:href="#Inter-Regular-73" x="418.465973"/>
      <use xlink:href="#Inter-Regular-69" x="470.738708"/>
      <use xlink:href="#Inter-Regular-74" x="494.460297"/>
      <use xlink:href="#Inter-Regular-69" x="530.823944"/>
      <use xlink:href="#Inter-Regular-76" x="554.545532"/>
      <use xlink:href="#Inter-Regular-65" x="610.227356"/>
      <use xlink:href="#Inter-Regular-20" x="668.466003"/>
      <use xlink:href="#Inter-Regular-52" x="696.591003"/>
      <use xlink:href="#Inter-Regular-61" x="760.511475"/>
      <use xlink:href="#Inter-Regular-74" x="816.903534"/>
      <use xlink:href="#Inter-Regular-65" x="853.267181"/>
     </g>
    </g>
   </g>
   <g id="matplotlib.axis_2">
    <g id="ytick_1">
     <g id="line2d_13">
      <path d="M 57.6 294.845438 
L 414.72 294.845438 
" clip-path="url(#pc7fe39b143)" style="fill: none; stroke: #b0b0b0; stroke-width: 0.8; stroke-linecap: square"/>
     </g>
     <g id="line2d_14">
      <defs>
       <path id="mb524fe6ed0" d="M 0 0 
L -3.5 0 
" style="stroke: #000000; stroke-width: 0.8"/>
      </defs>
      <g>
       <use xlink:href="#mb524fe6ed0" x="57.6" y="294.845438" style="stroke: #000000; stroke-width: 0.8"/>
      </g>
     </g>
     <g id="text_8">
      <!-- 0.0 -->
      <g transform="translate(35.34375 298.482156) scale(0.1 -0.1)">
       <use xlink:href="#Inter-Regular-30"/>
       <use xlink:href="#Inter-Regular-2e" x="62.500015"/>
       <use xlink:href="#Inter-Regular-30" x="90.056839"/>
      </g>
     </g>
    </g>
    <g id="ytick_2">
     <g id="line2d_15">
      <path d="M 57.6 246.58995 
L 414.72 246.58995 
" clip-path="url(#pc7fe39b143)" style="fill: none; stroke: #b0b0b0; stroke-width: 0.8; stroke-linecap: square"/>
     </g>
     <g id="line2d_16">
      <g>
       <use xlink:href="#mb524fe6ed0" x="57.6" y="246.58995" style="stroke: #000000; stroke-width: 0.8"/>
      </g>
     </g>
     <g id="text_9">
      <!-- 0.2 -->
      <g transform="translate(35.542187 250.226669) scale(0.1 -0.1)">
       <use xlink:href="#Inter-Regular-30"/>
       <use xlink:href="#Inter-Regular-2e" x="62.500015"/>
       <use xlink:href="#Inter-Regular-32" x="90.056839"/>
      </g>
     </g>
    </g>
    <g id="ytick_3">
     <g id="line2d_17">
      <path d="M 57.6 198.334463 
L 414.72 198.334463 
" clip-path="url(#pc7fe39b143)" style="fill: none; stroke: #b0b0b0; stroke-width: 0.8; stroke-linecap: square"/>
     </g>
     <g id="line2d_18">
      <g>
       <use xlink:href="#mb524fe6ed0" x="57.6" y="198.334463" style="stroke: #000000; stroke-width: 0.8"/>
      </g>
     </g>
     <g id="text_10">
      <!-- 0.4 -->
      <g transform="translate(35.173437 201.971181) scale(0.1 -0.1)">
       <use xlink:href="#Inter-Regular-30"/>
       <use xlink:href="#Inter-Regular-2e" x="62.500015"/>
       <use xlink:href="#Inter-Regular-34" x="90.056839"/>
      </g>
     </g>
    </g>
    <g id="ytick_4">
     <g id="line2d_19">
      <path d="M 57.6 150.078975 
L 414.72 150.078975 
" clip-path="url(#pc7fe39b143)" style="fill: none; stroke: #b0b0b0; stroke-width: 0.8; stroke-linecap: square"/>
     </g>
     <g id="line2d_20">
      <g>
       <use xlink:href="#mb524fe6ed0" x="57.6" y="150.078975" style="stroke: #000000; stroke-width: 0.8"/>
      </g>
     </g>
     <g id="text_11">
      <!-- 0.6 -->
      <g transform="translate(35.357813 153.715694) scale(0.1 -0.1)">
       <use xlink:href="#Inter-Regular-30"/>
       <use xlink:href="#Inter-Regular-2e" x="62.500015"/>
       <use xlink:href="#Inter-Regular-36" x="90.056839"/>
      </g>
     </g>
    </g>
    <g id="ytick_5">
     <g id="line2d_21">
      <path d="M 57.6 101.823488 
L 414.72 101.823488 
" clip-path="url(#pc7fe39b143)" style="fill: none; stroke: #b0b0b0; stroke-width: 0.8; stroke-linecap: square"/>
     </g>
     <g id="line2d_22">
      <g>
       <use xlink:href="#mb524fe6ed0" x="57.6" y="101.823488" style="stroke: #000000; stroke-width: 0.8"/>
      </g>
     </g>
     <g id="text_12">
      <!-- 0.8 -->
      <g transform="translate(35.428125 105.460206) scale(0.1 -0.1)">
       <use xlink:href="#Inter-Regular-30"/>
       <use xlink:href="#Inter-Regular-2e" x="62.500015"/>
       <use xlink:href="#Inter-Regular-38" x="90.056839"/>
      </g>
     </g>
    </g>
    <g id="ytick_6">
     <g id="line2d_23">
      <path d="M 57.6 53.568 
L 414.72 53.568 
" clip-path="url(#pc7fe39b143)" style="fill: none; stroke: #b0b0b0; stroke-width: 0.8; stroke-linecap: square"/>
     </g>
     <g id="line2d_24">
      <g>
       <use xlink:href="#mb524fe6ed0" x="57.6" y="53.568" style="stroke: #000000; stroke-width: 0.8"/>
      </g>
     </g>
     <g id="text_13">
      <!-- 1.0 -->
      <g transform="translate(36.948437 57.204719) scale(0.1 -0.1)">
       <use xlink:href="#Inter-Regular-31"/>
       <use xlink:href="#Inter-Regular-2e" x="46.448868"/>
       <use xlink:href="#Inter-Regular-30" x="74.005692"/>
      </g>
     </g>
    </g>
    <g id="text_14">
     <!-- True-Positive Rate -->
     <g transform="translate(29.128125 218.526437) rotate(-90) scale(0.1 -0.1)">
      <defs>
       <path id="Inter-Regular-54" d="M 309 4155 
L 1773 4155 
L 1773 0 
L 2336 0 
L 2336 4155 
L 3800 4155 
L 3800 4655 
L 309 4655 
L 309 4155 
z
" transform="scale(0.015625)"/>
       <path id="Inter-Regular-72" d="M 491 0 
L 1027 0 
L 1027 2209 
C 1027 2682 1400 3027 1909 3027 
C 2052 3027 2200 3000 2236 2991 
L 2236 3536 
C 2175 3541 2034 3545 1955 3545 
C 1536 3545 1173 3309 1046 2964 
L 1009 2964 
L 1009 3491 
L 491 3491 
L 491 0 
z
" transform="scale(0.015625)"/>
       <path id="Inter-Regular-75" d="M 2691 1427 
C 2691 773 2191 473 1791 473 
C 1346 473 1027 800 1027 1309 
L 1027 3491 
L 491 3491 
L 491 1273 
C 491 382 964 -45 1618 -45 
C 2146 -45 2491 236 2655 591 
L 2691 591 
L 2691 0 
L 3227 0 
L 3227 3491 
L 2691 3491 
L 2691 1427 
z
" transform="scale(0.015625)"/>
      </defs>
      <use xlink:href="#Inter-Regular-54"/>
      <use xlink:href="#Inter-Regular-72" x="64.204559"/>
      <use xlink:href="#Inter-Regular-75" x="101.420471"/>
      <use xlink:href="#Inter-Regular-65" x="159.517075"/>
      <use xlink:href="#Inter-Regular-2d" x="217.755722"/>
      <use xlink:href="#Inter-Regular-50" x="263.778458"/>
      <use xlink:href="#Inter-Regular-6f" x="327.272781"/>
      <use xlink:href="#Inter-Regular-73" x="386.931885"/>
      <use xlink:href="#Inter-Regular-69" x="439.20462"/>
      <use xlink:href="#Inter-Regular-74" x="462.926208"/>
      <use xlink:href="#Inter-Regular-69" x="499.289856"/>
      <use xlink:href="#Inter-Regular-76" x="523.011444"/>
      <use xlink:href="#Inter-Regular-65" x="578.693268"/>
      <use xlink:href="#Inter-Regular-20" x="636.931915"/>
      <use xlink:href="#Inter-Regular-52" x="665.056915"/>
      <use xlink:href="#Inter-Regular-61" x="728.977386"/>
      <use xlink:href="#Inter-Regular-74" x="785.369446"/>
      <use xlink:href="#Inter-Regular-65" x="821.733093"/>
     </g>
    </g>
   </g>
   <g id="line2d_25">
    <path d="M 73.832727 286.47498 
L 77.112066 258.332986 
L 80.391405 247.696581 
L 83.670744 239.153438 
L 86.950083 232.64076 
L 90.229421 227.159216 
L 93.50876 222.00649 
L 96.788099 217.501761 
L 100.067438 212.736777 
L 103.346777 208.988784 
L 106.626116 205.342257 
L 109.905455 201.60484 
L 113.184793 198.823523 
L 116.464132 195.352314 
L 119.743471 192.269036 
L 123.02281 189.038778 
L 126.302149 185.474353 
L 129.581488 182.690759 
L 132.860826 179.472028 
L 136.140165 176.478738 
L 139.419504 173.493149 
L 142.698843 170.290481 
L 145.978182 167.433986 
L 149.257521 164.658065 
L 152.53686 161.906173 
L 155.816198 159.161477 
L 159.095537 157.050674 
L 162.374876 154.476266 
L 165.654215 152.161975 
L 168.933554 149.362126 
L 172.212893 147.084755 
L 175.492231 144.649185 
L 178.77157 142.789375 
L 182.050909 140.085044 
L 185.330248 137.834177 
L 188.609587 135.506207 
L 191.888926 132.832585 
L 195.168264 130.686496 
L 198.447603 128.500845 
L 201.726942 126.300719 
L 205.006281 124.14811 
L 208.28562 122.134425 
L 211.564959 120.170515 
L 214.844298 117.93588 
L 218.123636 116.126709 
L 221.402975 114.683349 
L 224.682314 113.158987 
L 227.961653 111.357463 
L 231.240992 109.582474 
L 234.520331 107.380095 
L 237.799669 105.840793 
L 241.079008 103.940109 
L 244.358347 102.043613 
L 247.637686 100.153611 
L 250.917025 98.582686 
L 254.196364 96.970792 
L 257.475702 95.43646 
L 260.755041 93.979428 
L 264.03438 92.391486 
L 267.313719 90.763964 
L 270.593058 89.225684 
L 273.872397 87.908805 
L 277.151736 86.124147 
L 280.431074 84.484317 
L 283.710413 82.900359 
L 286.989752 81.189425 
L 290.269091 79.740376 
L 293.54843 78.407795 
L 296.827769 76.917013 
L 300.107107 75.768991 
L 303.386446 74.556397 
L 306.665785 73.072493 
L 309.945124 71.75401 
L 313.224463 70.777336 
L 316.503802 69.777897 
L 319.78314 68.881647 
L 323.062479 68.140423 
L 326.341818 67.410339 
L 329.621157 66.475118 
L 332.900496 65.760979 
L 336.179835 65.048683 
L 339.459174 64.092122 
L 342.738512 63.113912 
L 346.017851 62.37677 
L 349.29719 61.662018 
L 352.576529 61.069263 
L 355.855868 60.328624 
L 359.135207 59.663111 
L 362.414545 58.935476 
L 365.693884 58.270921 
L 368.973223 57.501512 
L 372.252562 57.08314 
L 375.531901 56.543568 
L 378.81124 55.975659 
L 382.090579 55.578246 
L 385.369917 55.215143 
L 388.649256 54.793135 
L 391.928595 54.264214 
L 395.207934 53.896649 
L 398.487273 53.568 
" clip-path="url(#pc7fe39b143)" style="fill: none; stroke: #d81b60; stroke-width: 1.5; stroke-linecap: square"/>
   </g>
   <g id="line2d_26">
    <path d="M 229.218318 307.584 
L 229.218318 41.472 
" clip-path="url(#pc7fe39b143)" style="fill: none; stroke: #1e88e5; stroke-width: 1.5; stroke-linecap: square"/>
   </g>
   <g id="line2d_27">
    <path d="M 203.378989 307.584 
L 203.378989 41.472 
" clip-path="url(#pc7fe39b143)" style="fill: none; stroke-dasharray: 1.5,2.475; stroke-dashoffset: 0; stroke: #1e88e5; stroke-width: 1.5"/>
   </g>
   <g id="line2d_28">
    <path d="M 255.057648 307.584 
L 255.057648 41.472 
" clip-path="url(#pc7fe39b143)" style="fill: none; stroke-dasharray: 1.5,2.475; stroke-dashoffset: 0; stroke: #1e88e5; stroke-width: 1.5"/>
   </g>
   <g id="patch_3">
    <path d="M 57.6 307.584 
L 57.6 41.472 
" style="fill: none; stroke: #000000; stroke-width: 0.8; stroke-linejoin: miter; stroke-linecap: square"/>
   </g>
   <g id="patch_4">
    <path d="M 414.72 307.584 
L 414.72 41.472 
" style="fill: none; stroke: #000000; stroke-width: 0.8; stroke-linejoin: miter; stroke-linecap: square"/>
   </g>
   <g id="patch_5">
    <path d="M 57.6 307.584 
L 414.72 307.584 
" style="fill: none; stroke: #000000; stroke-width: 0.8; stroke-linejoin: miter; stroke-linecap: square"/>
   </g>
   <g id="patch_6">
    <path d="M 57.6 41.472 
L 414.72 41.472 
" style="fill: none; stroke: #000000; stroke-width: 0.8; stroke-linejoin: miter; stroke-linecap: square"/>
   </g>
   <g id="text_15">
    <!-- Receiver-Operator Curve -->
    <g transform="translate(161.865938 35.472) scale(0.12 -0.12)">
     <defs>
      <path id="Inter-Bold-52" d="M 405 0 
L 1389 0 
L 1389 1650 
L 2107 1650 
L 2989 0 
L 4075 0 
L 3086 1809 
C 3616 2036 3909 2498 3909 3134 
C 3909 4059 3298 4655 2241 4655 
L 405 4655 
L 405 0 
z
M 1389 2441 
L 1389 3850 
L 2052 3850 
C 2621 3850 2896 3598 2896 3134 
C 2896 2673 2621 2441 2057 2441 
L 1389 2441 
z
" transform="scale(0.015625)"/>
      <path id="Inter-Bold-65" d="M 1977 -68 
C 2841 -68 3423 352 3559 1000 
L 2664 1059 
C 2566 793 2316 655 1993 655 
C 1509 655 1202 975 1202 1495 
L 1202 1498 
L 3580 1498 
L 3580 1764 
C 3580 2950 2861 3536 1939 3536 
C 911 3536 246 2807 246 1730 
C 246 623 902 -68 1977 -68 
z
M 1202 2098 
C 1223 2495 1525 2814 1955 2814 
C 2375 2814 2666 2514 2668 2098 
L 1202 2098 
z
" transform="scale(0.015625)"/>
      <path id="Inter-Bold-63" d="M 1964 -68 
C 2893 -68 3477 477 3523 1280 
L 2609 1280 
C 2552 907 2307 698 1975 698 
C 1523 698 1230 1077 1230 1745 
C 1230 2405 1525 2782 1975 2782 
C 2330 2782 2557 2548 2609 2200 
L 3523 2200 
C 3482 3007 2871 3536 1959 3536 
C 900 3536 246 2802 246 1732 
C 246 670 889 -68 1964 -68 
z
" transform="scale(0.015625)"/>
      <path id="Inter-Bold-69" d="M 386 0 
L 1355 0 
L 1355 3491 
L 386 3491 
L 386 0 
z
M 873 3941 
C 1161 3941 1398 4161 1398 4432 
C 1398 4700 1161 4920 873 4920 
C 586 4920 350 4700 350 4432 
C 350 4161 586 3941 873 3941 
z
" transform="scale(0.015625)"/>
      <path id="Inter-Bold-76" d="M 3641 3491 
L 2616 3491 
L 1893 993 
L 1857 993 
L 1132 3491 
L 109 3491 
L 1330 0 
L 2421 0 
L 3641 3491 
z
" transform="scale(0.015625)"/>
      <path id="Inter-Bold-72" d="M 386 0 
L 1355 0 
L 1355 1975 
C 1355 2405 1668 2700 2096 2700 
C 2230 2700 2414 2677 2505 2648 
L 2505 3507 
C 2418 3527 2298 3541 2200 3541 
C 1809 3541 1489 3314 1361 2882 
L 1325 2882 
L 1325 3491 
L 386 3491 
L 386 0 
z
" transform="scale(0.015625)"/>
      <path id="Inter-Bold-2d" d="M 2561 2295 
L 439 2295 
L 439 1527 
L 2561 1527 
L 2561 2295 
z
" transform="scale(0.015625)"/>
      <path id="Inter-Bold-4f" d="M 4682 2327 
C 4682 3850 3736 4718 2502 4718 
C 1261 4718 323 3850 323 2327 
C 323 811 1261 -64 2502 -64 
C 3736 -64 4682 805 4682 2327 
z
M 3684 2327 
C 3684 1341 3216 807 2502 807 
C 1786 807 1321 1341 1321 2327 
C 1321 3314 1786 3848 2502 3848 
C 3216 3848 3684 3314 3684 2327 
z
" transform="scale(0.015625)"/>
      <path id="Inter-Bold-70" d="M 386 -1309 
L 1355 -1309 
L 1355 559 
L 1384 559 
C 1518 268 1811 -57 2375 -57 
C 3171 -57 3791 573 3791 1741 
C 3791 2941 3143 3536 2377 3536 
C 1793 3536 1514 3189 1384 2905 
L 1341 2905 
L 1341 3491 
L 386 3491 
L 386 -1309 
z
M 1334 1745 
C 1334 2368 1598 2766 2068 2766 
C 2548 2766 2802 2350 2802 1745 
C 2802 1136 2543 714 2068 714 
C 1602 714 1334 1123 1334 1745 
z
" transform="scale(0.015625)"/>
      <path id="Inter-Bold-61" d="M 1382 -66 
C 1898 -66 2232 159 2402 484 
L 2430 484 
L 2430 0 
L 3348 0 
L 3348 2355 
C 3348 3186 2643 3536 1866 3536 
C 1030 3536 480 3136 346 2500 
L 1241 2427 
C 1307 2659 1514 2830 1861 2830 
C 2191 2830 2380 2664 2380 2377 
L 2380 2364 
C 2380 2139 2141 2109 1534 2050 
C 843 1986 223 1755 223 975 
C 223 284 716 -66 1382 -66 
z
M 1659 602 
C 1361 602 1148 741 1148 1007 
C 1148 1280 1373 1414 1714 1461 
C 1925 1491 2271 1541 2386 1618 
L 2386 1248 
C 2386 882 2084 602 1659 602 
z
" transform="scale(0.015625)"/>
      <path id="Inter-Bold-74" d="M 2243 3491 
L 1586 3491 
L 1586 4327 
L 618 4327 
L 618 3491 
L 141 3491 
L 141 2764 
L 618 2764 
L 618 945 
C 614 261 1080 -77 1782 -48 
C 2032 -39 2209 11 2307 43 
L 2155 764 
C 2107 755 2005 732 1914 732 
C 1721 732 1586 805 1586 1073 
L 1586 2764 
L 2243 2764 
L 2243 3491 
z
" transform="scale(0.015625)"/>
      <path id="Inter-Bold-6f" d="M 1964 -68 
C 3023 -68 3682 657 3682 1732 
C 3682 2814 3023 3536 1964 3536 
C 905 3536 246 2814 246 1732 
C 246 657 905 -68 1964 -68 
z
M 1968 682 
C 1480 682 1230 1130 1230 1739 
C 1230 2348 1480 2798 1968 2798 
C 2448 2798 2698 2348 2698 1739 
C 2698 1130 2448 682 1968 682 
z
" transform="scale(0.015625)"/>
      <path id="Inter-Bold-20" transform="scale(0.015625)"/>
      <path id="Inter-Bold-43" d="M 4511 3025 
C 4382 4100 3568 4718 2491 4718 
C 1261 4718 323 3850 323 2327 
C 323 809 1246 -64 2491 -64 
C 3684 -64 4405 730 4511 1586 
L 3516 1591 
C 3423 1093 3032 807 2507 807 
C 1800 807 1321 1332 1321 2327 
C 1321 3295 1793 3848 2514 3848 
C 3052 3848 3441 3536 3516 3025 
L 4511 3025 
z
" transform="scale(0.015625)"/>
      <path id="Inter-Bold-75" d="M 2625 1486 
C 2627 1018 2307 773 1959 773 
C 1593 773 1357 1030 1355 1441 
L 1355 3491 
L 386 3491 
L 386 1268 
C 389 452 866 -45 1568 -45 
C 2093 -45 2471 225 2627 634 
L 2664 634 
L 2664 0 
L 3593 0 
L 3593 3491 
L 2625 3491 
L 2625 1486 
z
" transform="scale(0.015625)"/>
     </defs>
     <use xlink:href="#Inter-Bold-52"/>
     <use xlink:href="#Inter-Bold-65" x="65.625015"/>
     <use xlink:href="#Inter-Bold-63" x="125.390656"/>
     <use xlink:href="#Inter-Bold-65" x="184.126465"/>
     <use xlink:href="#Inter-Bold-69" x="243.892105"/>
     <use xlink:href="#Inter-Bold-76" x="271.093811"/>
     <use xlink:href="#Inter-Bold-65" x="329.687576"/>
     <use xlink:href="#Inter-Bold-72" x="389.453217"/>
     <use xlink:href="#Inter-Bold-2d" x="430.326797"/>
     <use xlink:href="#Inter-Bold-4f" x="477.201813"/>
     <use xlink:href="#Inter-Bold-70" x="555.397858"/>
     <use xlink:href="#Inter-Bold-65" x="618.643616"/>
     <use xlink:href="#Inter-Bold-72" x="678.409256"/>
     <use xlink:href="#Inter-Bold-61" x="719.282837"/>
     <use xlink:href="#Inter-Bold-74" x="777.308411"/>
     <use xlink:href="#Inter-Bold-6f" x="816.157852"/>
     <use xlink:href="#Inter-Bold-72" x="877.5215"/>
     <use xlink:href="#Inter-Bold-20" x="918.395081"/>
     <use xlink:href="#Inter-Bold-43" x="941.584"/>
     <use xlink:href="#Inter-Bold-75" x="1016.797089"/>
     <use xlink:href="#Inter-Bold-72" x="1078.977493"/>
     <use xlink:href="#Inter-Bold-76" x="1119.851074"/>
     <use xlink:href="#Inter-Bold-65" x="1178.444839"/>
    </g>
   </g>
   <g id="legend_1">
    <g id="patch_7">
     <path d="M 64.6 78.1095 
L 184.65625 78.1095 
Q 186.65625 78.1095 186.65625 76.1095 
L 186.65625 48.472 
Q 186.65625 46.472 184.65625 46.472 
L 64.6 46.472 
Q 62.6 46.472 62.6 48.472 
L 62.6 76.1095 
Q 62.6 78.1095 64.6 78.1095 
z
" style="fill: #ffffff; opacity: 0.8; stroke: #cccccc; stroke-linejoin: miter"/>
    </g>
    <g id="line2d_29">
     <path d="M 66.6 54.245437 
L 76.6 54.245437 
L 86.6 54.245437 
" style="fill: none; stroke: #1e88e5; stroke-width: 1.5; stroke-linecap: square"/>
    </g>
    <g id="text_16">
     <!-- Youden's J (mean) -->
     <g transform="translate(94.6 57.745437) scale(0.1 -0.1)">
      <defs>
       <path id="Inter-Regular-59" d="M 164 4655 
L 1846 1918 
L 1846 0 
L 2409 0 
L 2409 1918 
L 4091 4655 
L 3446 4655 
L 2155 2482 
L 2100 2482 
L 809 4655 
L 164 4655 
z
" transform="scale(0.015625)"/>
       <path id="Inter-Regular-64" d="M 1809 -73 
C 2482 -73 2709 345 2827 536 
L 2891 536 
L 2891 0 
L 3409 0 
L 3409 4655 
L 2873 4655 
L 2873 2936 
L 2827 2936 
C 2709 3118 2500 3536 1818 3536 
C 936 3536 327 2836 327 1736 
C 327 627 936 -73 1809 -73 
z
M 1882 409 
C 1209 409 864 1000 864 1745 
C 864 2482 1200 3055 1882 3055 
C 2536 3055 2882 2527 2882 1745 
C 2882 955 2527 409 1882 409 
z
" transform="scale(0.015625)"/>
       <path id="Inter-Regular-6e" d="M 1027 2100 
C 1027 2709 1405 3055 1918 3055 
C 2416 3055 2718 2730 2718 2182 
L 2718 0 
L 3255 0 
L 3255 2218 
C 3255 3109 2780 3536 2073 3536 
C 1546 3536 1218 3300 1055 2945 
L 1009 2945 
L 1009 3491 
L 491 3491 
L 491 0 
L 1027 0 
L 1027 2100 
z
" transform="scale(0.015625)"/>
       <path id="Inter-Regular-27" d="M 955 4655 
L 455 4655 
L 455 3055 
L 955 3055 
L 955 4655 
z
" transform="scale(0.015625)"/>
       <path id="Inter-Regular-4a" d="M 2346 4655 
L 2346 1327 
C 2346 748 2068 436 1582 436 
C 1139 436 818 695 818 1091 
L 264 1091 
C 264 375 818 -64 1582 -64 
C 2391 -64 2909 434 2909 1327 
L 2909 4655 
L 2346 4655 
z
" transform="scale(0.015625)"/>
       <path id="Inter-Regular-28" d="M 682 1964 
C 682 818 991 -136 1546 -945 
L 2018 -945 
C 1582 -345 1236 882 1236 1964 
C 1236 3045 1582 4273 2018 4873 
L 1546 4873 
C 991 4064 682 3109 682 1964 
z
" transform="scale(0.015625)"/>
       <path id="Inter-Regular-6d" d="M 491 0 
L 1027 0 
L 1027 2182 
C 1027 2693 1400 3055 1818 3055 
C 2225 3055 2509 2789 2509 2391 
L 2509 0 
L 3055 0 
L 3055 2273 
C 3055 2723 3336 3055 3827 3055 
C 4209 3055 4536 2852 4536 2336 
L 4536 0 
L 5073 0 
L 5073 2336 
C 5073 3157 4632 3536 4009 3536 
C 3509 3536 3143 3307 2964 2945 
L 2927 2945 
C 2755 3318 2450 3536 1991 3536 
C 1536 3536 1200 3318 1055 2945 
L 1009 2945 
L 1009 3491 
L 491 3491 
L 491 0 
z
" transform="scale(0.015625)"/>
       <path id="Inter-Regular-29" d="M 1636 1964 
C 1636 3109 1327 4064 773 4873 
L 300 4873 
C 736 4273 1082 3045 1082 1964 
C 1082 882 736 -345 300 -945 
L 773 -945 
C 1327 -136 1636 818 1636 1964 
z
" transform="scale(0.015625)"/>
      </defs>
      <use xlink:href="#Inter-Regular-59"/>
      <use xlink:href="#Inter-Regular-6f" x="66.47728"/>
      <use xlink:href="#Inter-Regular-75" x="126.136383"/>
      <use xlink:href="#Inter-Regular-64" x="184.232986"/>
      <use xlink:href="#Inter-Regular-65" x="246.30687"/>
      <use xlink:href="#Inter-Regular-6e" x="304.545517"/>
      <use xlink:href="#Inter-Regular-27" x="363.068253"/>
      <use xlink:href="#Inter-Regular-73" x="385.227341"/>
      <use xlink:href="#Inter-Regular-20" x="437.500076"/>
      <use xlink:href="#Inter-Regular-4a" x="465.625076"/>
      <use xlink:href="#Inter-Regular-20" x="519.886444"/>
      <use xlink:href="#Inter-Regular-28" x="548.011444"/>
      <use xlink:href="#Inter-Regular-6d" x="584.233032"/>
      <use xlink:href="#Inter-Regular-65" x="671.164871"/>
      <use xlink:href="#Inter-Regular-61" x="729.403519"/>
      <use xlink:href="#Inter-Regular-6e" x="785.795578"/>
      <use xlink:href="#Inter-Regular-29" x="844.318314"/>
     </g>
    </g>
    <g id="line2d_30">
     <path d="M 66.6 68.564188 
L 76.6 68.564188 
L 86.6 68.564188 
" style="fill: none; stroke-dasharray: 1.5,2.475; stroke-dashoffset: 0; stroke: #1e88e5; stroke-width: 1.5"/>
    </g>
    <g id="text_17">
     <!-- Youden's J (std) -->
     <g transform="translate(94.6 72.064188) scale(0.1 -0.1)">
      <use xlink:href="#Inter-Regular-59"/>
      <use xlink:href="#Inter-Regular-6f" x="66.47728"/>
      <use xlink:href="#Inter-Regular-75" x="126.136383"/>
      <use xlink:href="#Inter-Regular-64" x="184.232986"/>
      <use xlink:href="#Inter-Regular-65" x="246.30687"/>
      <use xlink:href="#Inter-Regular-6e" x="304.545517"/>
      <use xlink:href="#Inter-Regular-27" x="363.068253"/>
      <use xlink:href="#Inter-Regular-73" x="385.227341"/>
      <use xlink:href="#Inter-Regular-20" x="437.500076"/>
      <use xlink:href="#Inter-Regular-4a" x="465.625076"/>
      <use xlink:href="#Inter-Regular-20" x="519.886444"/>
      <use xlink:href="#Inter-Regular-28" x="548.011444"/>
      <use xlink:href="#Inter-Regular-73" x="584.233032"/>
      <use xlink:href="#Inter-Regular-74" x="636.505768"/>
      <use xlink:href="#Inter-Regular-64" x="672.869415"/>
      <use xlink:href="#Inter-Regular-29" x="734.943298"/>
     </g>
    </g>
   </g>
  </g>
 </g>
 <defs>
  <clipPath id="pc7fe39b143">
   <rect x="57.6" y="41.472" width="357.12" height="266.112"/>
  </clipPath>
 </defs>
</svg>
