<?xml version="1.0" encoding="utf-8" standalone="no"?>
<!DOCTYPE svg PUBLIC "-//W3C//DTD SVG 1.1//EN"
  "http://www.w3.org/Graphics/SVG/1.1/DTD/svg11.dtd">
<svg xmlns:xlink="http://www.w3.org/1999/xlink" width="460.8pt" height="345.6pt" viewBox="0 0 460.8 345.6" xmlns="http://www.w3.org/2000/svg" version="1.1">
 <metadata>
  <rdf:RDF xmlns:dc="http://purl.org/dc/elements/1.1/" xmlns:cc="http://creativecommons.org/ns#" xmlns:rdf="http://www.w3.org/1999/02/22-rdf-syntax-ns#">
   <cc:Work>
    <dc:type rdf:resource="http://purl.org/dc/dcmitype/StillImage"/>
    <dc:date>2023-12-27T16:58:57.296365</dc:date>
    <dc:format>image/svg+xml</dc:format>
    <dc:creator>
     <cc:Agent>
      <dc:title>Matplotlib v3.8.1, https://matplotlib.org/</dc:title>
     </cc:Agent>
    </dc:creator>
   </cc:Work>
  </rdf:RDF>
 </metadata>
 <defs>
  <style type="text/css">*{stroke-linejoin: round; stroke-linecap: butt}</style>
 </defs>
 <g id="figure_1">
  <g id="patch_1">
   <path d="M 0 345.6 
L 460.8 345.6 
L 460.8 0 
L 0 0 
z
" style="fill: #ffffff"/>
  </g>
  <g id="axes_1">
   <g id="patch_2">
    <path d="M 57.6 307.584 
L 414.72 307.584 
L 414.72 41.472 
L 57.6 41.472 
z
" style="fill: #ffffff"/>
   </g>
   <g id="matplotlib.axis_1">
    <g id="xtick_1">
     <g id="line2d_1">
      <path d="M 414.72 307.584 
L 414.72 41.472 
" clip-path="url(#p2966cdca96)" style="fill: none; stroke: #b0b0b0; stroke-width: 0.8; stroke-linecap: square"/>
     </g>
     <g id="line2d_2">
      <defs>
       <path id="mcaddf85821" d="M 0 0 
L 0 3.5 
" style="stroke: #000000; stroke-width: 0.8"/>
      </defs>
      <g>
       <use xlink:href="#mcaddf85821" x="414.72" y="307.584" style="stroke: #000000; stroke-width: 0.8"/>
      </g>
     </g>
     <g id="text_1">
      <!-- 75.0 -->
      <g transform="translate(404.321563 321.857437) scale(0.1 -0.1)">
       <defs>
        <path id="Inter-Regular-37" d="M 627 0 
L 1218 0 
L 3291 4127 
L 3291 4655 
L 309 4655 
L 309 4155 
L 2709 4155 
L 2709 4118 
L 627 0 
z
" transform="scale(0.015625)"/>
        <path id="Inter-Regular-35" d="M 1936 -64 
C 2823 -64 3473 591 3473 1482 
C 3473 2384 2846 3045 1991 3045 
C 1677 3045 1373 2934 1182 2782 
L 1155 2782 
L 1318 4155 
L 3264 4155 
L 3264 4655 
L 846 4655 
L 564 2364 
L 1091 2300 
C 1284 2439 1614 2539 1900 2536 
C 2493 2532 2927 2082 2927 1473 
C 2927 875 2509 436 1936 436 
C 1459 436 1080 743 1036 1164 
L 491 1164 
C 525 455 1136 -64 1936 -64 
z
" transform="scale(0.015625)"/>
        <path id="Inter-Regular-2e" d="M 882 -36 
C 1107 -36 1291 148 1291 373 
C 1291 598 1107 782 882 782 
C 657 782 473 598 473 373 
C 473 148 657 -36 882 -36 
z
" transform="scale(0.015625)"/>
        <path id="Inter-Regular-30" d="M 2000 -64 
C 3027 -64 3618 807 3618 2327 
C 3618 3836 3018 4718 2000 4718 
C 982 4718 382 3836 382 2327 
C 382 807 973 -64 2000 -64 
z
M 2000 436 
C 1323 436 927 1116 927 2327 
C 927 3536 1327 4227 2000 4227 
C 2673 4227 3073 3536 3073 2327 
C 3073 1116 2677 436 2000 436 
z
" transform="scale(0.015625)"/>
       </defs>
       <use xlink:href="#Inter-Regular-37"/>
       <use xlink:href="#Inter-Regular-35" x="57.10228"/>
       <use xlink:href="#Inter-Regular-2e" x="117.897751"/>
       <use xlink:href="#Inter-Regular-30" x="145.454575"/>
      </g>
     </g>
    </g>
    <g id="xtick_2">
     <g id="line2d_3">
      <path d="M 370.08 307.584 
L 370.08 41.472 
" clip-path="url(#p2966cdca96)" style="fill: none; stroke: #b0b0b0; stroke-width: 0.8; stroke-linecap: square"/>
     </g>
     <g id="line2d_4">
      <g>
       <use xlink:href="#mcaddf85821" x="370.08" y="307.584" style="stroke: #000000; stroke-width: 0.8"/>
      </g>
     </g>
     <g id="text_2">
      <!-- 77.5 -->
      <g transform="translate(359.951094 321.857437) scale(0.1 -0.1)">
       <use xlink:href="#Inter-Regular-37"/>
       <use xlink:href="#Inter-Regular-37" x="57.10228"/>
       <use xlink:href="#Inter-Regular-2e" x="114.204559"/>
       <use xlink:href="#Inter-Regular-35" x="141.761383"/>
      </g>
     </g>
    </g>
    <g id="xtick_3">
     <g id="line2d_5">
      <path d="M 325.44 307.584 
L 325.44 41.472 
" clip-path="url(#p2966cdca96)" style="fill: none; stroke: #b0b0b0; stroke-width: 0.8; stroke-linecap: square"/>
     </g>
     <g id="line2d_6">
      <g>
       <use xlink:href="#mcaddf85821" x="325.44" y="307.584" style="stroke: #000000; stroke-width: 0.8"/>
      </g>
     </g>
     <g id="text_3">
      <!-- 80.0 -->
      <g transform="translate(314.729062 321.857437) scale(0.1 -0.1)">
       <defs>
        <path id="Inter-Regular-38" d="M 1973 -64 
C 2902 -64 3550 480 3555 1236 
C 3550 1825 3157 2325 2655 2418 
L 2655 2445 
C 3091 2559 3377 2986 3382 3482 
C 3377 4191 2782 4718 1973 4718 
C 1155 4718 559 4191 564 3482 
C 559 2986 846 2559 1291 2445 
L 1291 2418 
C 780 2325 386 1825 391 1236 
C 386 480 1034 -64 1973 -64 
z
M 1973 436 
C 1334 436 941 764 946 1264 
C 941 1789 1375 2164 1973 2164 
C 2561 2164 2996 1789 3000 1264 
C 2996 764 2602 436 1973 436 
z
M 1973 2645 
C 1464 2645 1105 2964 1109 3445 
C 1105 3918 1450 4227 1973 4227 
C 2486 4227 2832 3918 2836 3445 
C 2832 2964 2473 2645 1973 2645 
z
" transform="scale(0.015625)"/>
       </defs>
       <use xlink:href="#Inter-Regular-38"/>
       <use xlink:href="#Inter-Regular-30" x="61.647736"/>
       <use xlink:href="#Inter-Regular-2e" x="124.147751"/>
       <use xlink:href="#Inter-Regular-30" x="151.704575"/>
      </g>
     </g>
    </g>
    <g id="xtick_4">
     <g id="line2d_7">
      <path d="M 280.8 307.584 
L 280.8 41.472 
" clip-path="url(#p2966cdca96)" style="fill: none; stroke: #b0b0b0; stroke-width: 0.8; stroke-linecap: square"/>
     </g>
     <g id="line2d_8">
      <g>
       <use xlink:href="#mcaddf85821" x="280.8" y="307.584" style="stroke: #000000; stroke-width: 0.8"/>
      </g>
     </g>
     <g id="text_4">
      <!-- 82.5 -->
      <g transform="translate(270.273438 321.857437) scale(0.1 -0.1)">
       <defs>
        <path id="Inter-Regular-32" d="M 482 0 
L 3418 0 
L 3418 500 
L 1255 500 
L 1255 536 
L 2300 1655 
C 3100 2511 3336 2911 3336 3427 
C 3336 4145 2755 4718 1936 4718 
C 1121 4718 500 4164 500 3345 
L 1036 3345 
C 1036 3875 1380 4227 1918 4227 
C 2423 4227 2809 3918 2809 3427 
C 2809 2998 2557 2680 2018 2091 
L 482 409 
L 482 0 
z
" transform="scale(0.015625)"/>
       </defs>
       <use xlink:href="#Inter-Regular-38"/>
       <use xlink:href="#Inter-Regular-32" x="61.647736"/>
       <use xlink:href="#Inter-Regular-2e" x="122.159119"/>
       <use xlink:href="#Inter-Regular-35" x="149.715942"/>
      </g>
     </g>
    </g>
    <g id="xtick_5">
     <g id="line2d_9">
      <path d="M 236.16 307.584 
L 236.16 41.472 
" clip-path="url(#p2966cdca96)" style="fill: none; stroke: #b0b0b0; stroke-width: 0.8; stroke-linecap: square"/>
     </g>
     <g id="line2d_10">
      <g>
       <use xlink:href="#mcaddf85821" x="236.16" y="307.584" style="stroke: #000000; stroke-width: 0.8"/>
      </g>
     </g>
     <g id="text_5">
      <!-- 85.0 -->
      <g transform="translate(225.534219 321.857437) scale(0.1 -0.1)">
       <use xlink:href="#Inter-Regular-38"/>
       <use xlink:href="#Inter-Regular-35" x="61.647736"/>
       <use xlink:href="#Inter-Regular-2e" x="122.443207"/>
       <use xlink:href="#Inter-Regular-30" x="150.000031"/>
      </g>
     </g>
    </g>
    <g id="xtick_6">
     <g id="line2d_11">
      <path d="M 191.52 307.584 
L 191.52 41.472 
" clip-path="url(#p2966cdca96)" style="fill: none; stroke: #b0b0b0; stroke-width: 0.8; stroke-linecap: square"/>
     </g>
     <g id="line2d_12">
      <g>
       <use xlink:href="#mcaddf85821" x="191.52" y="307.584" style="stroke: #000000; stroke-width: 0.8"/>
      </g>
     </g>
     <g id="text_6">
      <!-- 87.5 -->
      <g transform="translate(181.16375 321.857437) scale(0.1 -0.1)">
       <use xlink:href="#Inter-Regular-38"/>
       <use xlink:href="#Inter-Regular-37" x="61.647736"/>
       <use xlink:href="#Inter-Regular-2e" x="118.750015"/>
       <use xlink:href="#Inter-Regular-35" x="146.306839"/>
      </g>
     </g>
    </g>
    <g id="xtick_7">
     <g id="line2d_13">
      <path d="M 146.88 307.584 
L 146.88 41.472 
" clip-path="url(#p2966cdca96)" style="fill: none; stroke: #b0b0b0; stroke-width: 0.8; stroke-linecap: square"/>
     </g>
     <g id="line2d_14">
      <g>
       <use xlink:href="#mcaddf85821" x="146.88" y="307.584" style="stroke: #000000; stroke-width: 0.8"/>
      </g>
     </g>
     <g id="text_7">
      <!-- 90.0 -->
      <g transform="translate(136.133906 321.857437) scale(0.1 -0.1)">
       <defs>
        <path id="Inter-Regular-39" d="M 1964 4718 
C 1018 4730 409 4018 409 3164 
C 409 2264 1073 1618 1873 1618 
C 2355 1618 2764 1855 3018 2236 
L 3055 2236 
C 3055 1091 2609 436 1891 436 
C 1400 436 1100 745 1000 1173 
L 446 1173 
C 555 436 1109 -64 1891 -64 
C 2936 -64 3582 864 3582 2518 
C 3582 4227 2727 4709 1964 4718 
z
M 1964 4218 
C 2546 4218 2973 3718 2973 3173 
C 2973 2618 2518 2118 1946 2118 
C 1373 2118 955 2582 955 3164 
C 955 3745 1391 4218 1964 4218 
z
" transform="scale(0.015625)"/>
       </defs>
       <use xlink:href="#Inter-Regular-39"/>
       <use xlink:href="#Inter-Regular-30" x="62.357971"/>
       <use xlink:href="#Inter-Regular-2e" x="124.857986"/>
       <use xlink:href="#Inter-Regular-30" x="152.41481"/>
      </g>
     </g>
    </g>
    <g id="xtick_8">
     <g id="line2d_15">
      <path d="M 102.24 307.584 
L 102.24 41.472 
" clip-path="url(#p2966cdca96)" style="fill: none; stroke: #b0b0b0; stroke-width: 0.8; stroke-linecap: square"/>
     </g>
     <g id="line2d_16">
      <g>
       <use xlink:href="#mcaddf85821" x="102.24" y="307.584" style="stroke: #000000; stroke-width: 0.8"/>
      </g>
     </g>
     <g id="text_8">
      <!-- 92.5 -->
      <g transform="translate(91.678281 321.857437) scale(0.1 -0.1)">
       <use xlink:href="#Inter-Regular-39"/>
       <use xlink:href="#Inter-Regular-32" x="62.357971"/>
       <use xlink:href="#Inter-Regular-2e" x="122.869354"/>
       <use xlink:href="#Inter-Regular-35" x="150.426178"/>
      </g>
     </g>
    </g>
    <g id="xtick_9">
     <g id="line2d_17">
      <path d="M 57.6 307.584 
L 57.6 41.472 
" clip-path="url(#p2966cdca96)" style="fill: none; stroke: #b0b0b0; stroke-width: 0.8; stroke-linecap: square"/>
     </g>
     <g id="line2d_18">
      <g>
       <use xlink:href="#mcaddf85821" x="57.6" y="307.584" style="stroke: #000000; stroke-width: 0.8"/>
      </g>
     </g>
     <g id="text_9">
      <!-- 95.0 -->
      <g transform="translate(46.939063 321.857437) scale(0.1 -0.1)">
       <use xlink:href="#Inter-Regular-39"/>
       <use xlink:href="#Inter-Regular-35" x="62.357971"/>
       <use xlink:href="#Inter-Regular-2e" x="123.153442"/>
       <use xlink:href="#Inter-Regular-30" x="150.710266"/>
      </g>
     </g>
    </g>
    <g id="text_10">
     <!-- Percentile -->
     <g transform="translate(212.481094 335.176187) scale(0.1 -0.1)">
      <defs>
       <path id="Inter-Regular-50" d="M 564 0 
L 1127 0 
L 1127 1700 
L 2146 1700 
C 3230 1700 3718 2359 3718 3182 
C 3718 4005 3230 4655 2136 4655 
L 564 4655 
L 564 0 
z
M 1127 2200 
L 1127 4155 
L 2118 4155 
C 2875 4155 3164 3741 3164 3182 
C 3164 2623 2875 2200 2127 2200 
L 1127 2200 
z
" transform="scale(0.015625)"/>
       <path id="Inter-Regular-65" d="M 1955 -73 
C 2664 -73 3182 282 3346 809 
L 2827 955 
C 2691 591 2375 409 1955 409 
C 1325 409 891 816 866 1564 
L 3400 1564 
L 3400 1791 
C 3400 3091 2627 3536 1900 3536 
C 955 3536 327 2791 327 1718 
C 327 645 946 -73 1955 -73 
z
M 866 2027 
C 902 2570 1286 3055 1900 3055 
C 2482 3055 2855 2618 2855 2027 
L 866 2027 
z
" transform="scale(0.015625)"/>
       <path id="Inter-Regular-72" d="M 491 0 
L 1027 0 
L 1027 2209 
C 1027 2682 1400 3027 1909 3027 
C 2052 3027 2200 3000 2236 2991 
L 2236 3536 
C 2175 3541 2034 3545 1955 3545 
C 1536 3545 1173 3309 1046 2964 
L 1009 2964 
L 1009 3491 
L 491 3491 
L 491 0 
z
" transform="scale(0.015625)"/>
       <path id="Inter-Regular-63" d="M 1909 -73 
C 2682 -73 3191 400 3282 1018 
L 2746 1018 
C 2646 636 2327 409 1909 409 
C 1273 409 864 936 864 1745 
C 864 2536 1282 3055 1909 3055 
C 2382 3055 2664 2764 2746 2445 
L 3282 2445 
C 3191 3100 2636 3536 1900 3536 
C 955 3536 327 2791 327 1727 
C 327 682 927 -73 1909 -73 
z
" transform="scale(0.015625)"/>
       <path id="Inter-Regular-6e" d="M 1027 2100 
C 1027 2709 1405 3055 1918 3055 
C 2416 3055 2718 2730 2718 2182 
L 2718 0 
L 3255 0 
L 3255 2218 
C 3255 3109 2780 3536 2073 3536 
C 1546 3536 1218 3300 1055 2945 
L 1009 2945 
L 1009 3491 
L 491 3491 
L 491 0 
L 1027 0 
L 1027 2100 
z
" transform="scale(0.015625)"/>
       <path id="Inter-Regular-74" d="M 2009 3491 
L 1264 3491 
L 1264 4327 
L 727 4327 
L 727 3491 
L 200 3491 
L 200 3036 
L 727 3036 
L 727 855 
C 727 245 1218 -45 1673 -45 
C 1873 -45 2000 -9 2073 18 
L 1964 500 
C 1918 491 1846 473 1727 473 
C 1491 473 1264 545 1264 1000 
L 1264 3036 
L 2009 3036 
L 2009 3491 
z
" transform="scale(0.015625)"/>
       <path id="Inter-Regular-69" d="M 491 0 
L 1027 0 
L 1027 3491 
L 491 3491 
L 491 0 
z
M 764 4073 
C 973 4073 1146 4236 1146 4436 
C 1146 4636 973 4800 764 4800 
C 555 4800 382 4636 382 4436 
C 382 4236 555 4073 764 4073 
z
" transform="scale(0.015625)"/>
       <path id="Inter-Regular-6c" d="M 1027 4655 
L 491 4655 
L 491 0 
L 1027 0 
L 1027 4655 
z
" transform="scale(0.015625)"/>
      </defs>
      <use xlink:href="#Inter-Regular-50"/>
      <use xlink:href="#Inter-Regular-65" x="63.494324"/>
      <use xlink:href="#Inter-Regular-72" x="121.732971"/>
      <use xlink:href="#Inter-Regular-63" x="158.948883"/>
      <use xlink:href="#Inter-Regular-65" x="214.772751"/>
      <use xlink:href="#Inter-Regular-6e" x="273.011398"/>
      <use xlink:href="#Inter-Regular-74" x="331.534134"/>
      <use xlink:href="#Inter-Regular-69" x="367.897781"/>
      <use xlink:href="#Inter-Regular-6c" x="391.61937"/>
      <use xlink:href="#Inter-Regular-65" x="415.340958"/>
     </g>
    </g>
   </g>
   <g id="matplotlib.axis_2">
    <g id="ytick_1">
     <g id="line2d_19">
      <path d="M 57.6 307.584 
L 414.72 307.584 
" clip-path="url(#p2966cdca96)" style="fill: none; stroke: #b0b0b0; stroke-width: 0.8; stroke-linecap: square"/>
     </g>
     <g id="line2d_20">
      <defs>
       <path id="m70d486ed8f" d="M 0 0 
L -3.5 0 
" style="stroke: #000000; stroke-width: 0.8"/>
      </defs>
      <g>
       <use xlink:href="#m70d486ed8f" x="57.6" y="307.584" style="stroke: #000000; stroke-width: 0.8"/>
      </g>
     </g>
     <g id="text_11">
      <!-- 20 -->
      <g transform="translate(38.298437 311.220719) scale(0.1 -0.1)">
       <use xlink:href="#Inter-Regular-32"/>
       <use xlink:href="#Inter-Regular-30" x="60.511383"/>
      </g>
     </g>
    </g>
    <g id="ytick_2">
     <g id="line2d_21">
      <path d="M 57.6 274.36861 
L 414.72 274.36861 
" clip-path="url(#p2966cdca96)" style="fill: none; stroke: #b0b0b0; stroke-width: 0.8; stroke-linecap: square"/>
     </g>
     <g id="line2d_22">
      <g>
       <use xlink:href="#m70d486ed8f" x="57.6" y="274.36861" style="stroke: #000000; stroke-width: 0.8"/>
      </g>
     </g>
     <g id="text_12">
      <!-- 30 -->
      <g transform="translate(37.985937 278.005329) scale(0.1 -0.1)">
       <defs>
        <path id="Inter-Regular-33" d="M 2055 -64 
C 2957 -64 3627 502 3627 1264 
C 3627 1855 3277 2284 2691 2382 
L 2691 2418 
C 3161 2561 3455 2948 3455 3473 
C 3455 4132 2934 4718 2073 4718 
C 1268 4718 600 4223 573 3491 
L 1118 3491 
C 1139 3955 1580 4227 2064 4227 
C 2577 4227 2909 3916 2909 3445 
C 2909 2955 2525 2636 1973 2636 
L 1600 2636 
L 1600 2136 
L 1973 2136 
C 2680 2136 3073 1777 3073 1264 
C 3073 770 2643 436 2046 436 
C 1507 436 1080 714 1046 1164 
L 473 1164 
C 507 432 1152 -64 2055 -64 
z
" transform="scale(0.015625)"/>
       </defs>
       <use xlink:href="#Inter-Regular-33"/>
       <use xlink:href="#Inter-Regular-30" x="63.636383"/>
      </g>
     </g>
    </g>
    <g id="ytick_3">
     <g id="line2d_23">
      <path d="M 57.6 241.15322 
L 414.72 241.15322 
" clip-path="url(#p2966cdca96)" style="fill: none; stroke: #b0b0b0; stroke-width: 0.8; stroke-linecap: square"/>
     </g>
     <g id="line2d_24">
      <g>
       <use xlink:href="#m70d486ed8f" x="57.6" y="241.15322" style="stroke: #000000; stroke-width: 0.8"/>
      </g>
     </g>
     <g id="text_13">
      <!-- 40 -->
      <g transform="translate(37.929688 244.789939) scale(0.1 -0.1)">
       <defs>
        <path id="Inter-Regular-34" d="M 373 955 
L 2564 955 
L 2564 0 
L 3100 0 
L 3100 955 
L 3736 955 
L 3736 1455 
L 3100 1455 
L 3100 4655 
L 2418 4655 
L 373 1418 
L 373 955 
z
M 2564 1455 
L 982 1455 
L 982 1491 
L 2527 3936 
L 2564 3936 
L 2564 1455 
z
" transform="scale(0.015625)"/>
       </defs>
       <use xlink:href="#Inter-Regular-34"/>
       <use xlink:href="#Inter-Regular-30" x="64.204559"/>
      </g>
     </g>
    </g>
    <g id="ytick_4">
     <g id="line2d_25">
      <path d="M 57.6 207.93783 
L 414.72 207.93783 
" clip-path="url(#p2966cdca96)" style="fill: none; stroke: #b0b0b0; stroke-width: 0.8; stroke-linecap: square"/>
     </g>
     <g id="line2d_26">
      <g>
       <use xlink:href="#m70d486ed8f" x="57.6" y="207.93783" style="stroke: #000000; stroke-width: 0.8"/>
      </g>
     </g>
     <g id="text_14">
      <!-- 50 -->
      <g transform="translate(38.270313 211.574549) scale(0.1 -0.1)">
       <use xlink:href="#Inter-Regular-35"/>
       <use xlink:href="#Inter-Regular-30" x="60.795471"/>
      </g>
     </g>
    </g>
    <g id="ytick_5">
     <g id="line2d_27">
      <path d="M 57.6 174.72244 
L 414.72 174.72244 
" clip-path="url(#p2966cdca96)" style="fill: none; stroke: #b0b0b0; stroke-width: 0.8; stroke-linecap: square"/>
     </g>
     <g id="line2d_28">
      <g>
       <use xlink:href="#m70d486ed8f" x="57.6" y="174.72244" style="stroke: #000000; stroke-width: 0.8"/>
      </g>
     </g>
     <g id="text_15">
      <!-- 60 -->
      <g transform="translate(38.114063 178.359158) scale(0.1 -0.1)">
       <defs>
        <path id="Inter-Regular-36" d="M 2027 -64 
C 2968 -75 3582 634 3582 1500 
C 3582 2400 2916 3045 2118 3045 
C 1639 3045 1227 2811 973 2427 
L 936 2427 
C 939 3561 1380 4218 2100 4218 
C 2591 4218 2886 3909 2991 3491 
L 3546 3491 
C 3432 4214 2882 4718 2100 4718 
C 1052 4718 409 3791 409 2145 
C 409 425 1264 -55 2027 -64 
z
M 2027 436 
C 1443 436 1016 934 1018 1491 
C 1021 2048 1468 2545 2046 2545 
C 2616 2545 3036 2077 3036 1500 
C 3036 909 2598 436 2027 436 
z
" transform="scale(0.015625)"/>
       </defs>
       <use xlink:href="#Inter-Regular-36"/>
       <use xlink:href="#Inter-Regular-30" x="62.357971"/>
      </g>
     </g>
    </g>
    <g id="ytick_6">
     <g id="line2d_29">
      <path d="M 57.6 141.50705 
L 414.72 141.50705 
" clip-path="url(#p2966cdca96)" style="fill: none; stroke: #b0b0b0; stroke-width: 0.8; stroke-linecap: square"/>
     </g>
     <g id="line2d_30">
      <g>
       <use xlink:href="#m70d486ed8f" x="57.6" y="141.50705" style="stroke: #000000; stroke-width: 0.8"/>
      </g>
     </g>
     <g id="text_16">
      <!-- 70 -->
      <g transform="translate(38.639063 145.143768) scale(0.1 -0.1)">
       <use xlink:href="#Inter-Regular-37"/>
       <use xlink:href="#Inter-Regular-30" x="57.10228"/>
      </g>
     </g>
    </g>
    <g id="ytick_7">
     <g id="line2d_31">
      <path d="M 57.6 108.29166 
L 414.72 108.29166 
" clip-path="url(#p2966cdca96)" style="fill: none; stroke: #b0b0b0; stroke-width: 0.8; stroke-linecap: square"/>
     </g>
     <g id="line2d_32">
      <g>
       <use xlink:href="#m70d486ed8f" x="57.6" y="108.29166" style="stroke: #000000; stroke-width: 0.8"/>
      </g>
     </g>
     <g id="text_17">
      <!-- 80 -->
      <g transform="translate(38.184375 111.928378) scale(0.1 -0.1)">
       <use xlink:href="#Inter-Regular-38"/>
       <use xlink:href="#Inter-Regular-30" x="61.647736"/>
      </g>
     </g>
    </g>
    <g id="ytick_8">
     <g id="line2d_33">
      <path d="M 57.6 75.076269 
L 414.72 75.076269 
" clip-path="url(#p2966cdca96)" style="fill: none; stroke: #b0b0b0; stroke-width: 0.8; stroke-linecap: square"/>
     </g>
     <g id="line2d_34">
      <g>
       <use xlink:href="#m70d486ed8f" x="57.6" y="75.076269" style="stroke: #000000; stroke-width: 0.8"/>
      </g>
     </g>
     <g id="text_18">
      <!-- 90 -->
      <g transform="translate(38.114063 78.712988) scale(0.1 -0.1)">
       <use xlink:href="#Inter-Regular-39"/>
       <use xlink:href="#Inter-Regular-30" x="62.357971"/>
      </g>
     </g>
    </g>
    <g id="ytick_9">
     <g id="line2d_35">
      <path d="M 57.6 41.860879 
L 414.72 41.860879 
" clip-path="url(#p2966cdca96)" style="fill: none; stroke: #b0b0b0; stroke-width: 0.8; stroke-linecap: square"/>
     </g>
     <g id="line2d_36">
      <g>
       <use xlink:href="#m70d486ed8f" x="57.6" y="41.860879" style="stroke: #000000; stroke-width: 0.8"/>
      </g>
     </g>
     <g id="text_19">
      <!-- 100 -->
      <g transform="translate(33.454688 45.497598) scale(0.1 -0.1)">
       <defs>
        <path id="Inter-Regular-31" d="M 2118 4655 
L 1555 4655 
L 391 3882 
L 391 3309 
L 1527 4064 
L 1555 4064 
L 1555 0 
L 2118 0 
L 2118 4655 
z
" transform="scale(0.015625)"/>
       </defs>
       <use xlink:href="#Inter-Regular-31"/>
       <use xlink:href="#Inter-Regular-30" x="46.448868"/>
       <use xlink:href="#Inter-Regular-30" x="108.948883"/>
      </g>
     </g>
    </g>
    <g id="text_20">
     <!-- Average Precision (%) -->
     <g transform="translate(27.295313 226.374875) rotate(-90) scale(0.1 -0.1)">
      <defs>
       <path id="Inter-Regular-41" d="M 755 0 
L 1223 1318 
L 3105 1318 
L 3573 0 
L 4164 0 
L 2455 4655 
L 1873 4655 
L 164 0 
L 755 0 
z
M 1400 1818 
L 2146 3918 
L 2182 3918 
L 2927 1818 
L 1400 1818 
z
" transform="scale(0.015625)"/>
       <path id="Inter-Regular-76" d="M 3346 3491 
L 2764 3491 
L 1800 709 
L 1764 709 
L 800 3491 
L 218 3491 
L 1509 0 
L 2055 0 
L 3346 3491 
z
" transform="scale(0.015625)"/>
       <path id="Inter-Regular-61" d="M 1518 -82 
C 2127 -82 2446 245 2555 473 
L 2582 473 
L 2582 0 
L 3118 0 
L 3118 2300 
C 3118 3409 2273 3536 1827 3536 
C 1300 3536 700 3355 427 2718 
L 936 2536 
C 1055 2791 1334 3064 1846 3064 
C 2339 3064 2582 2802 2582 2355 
L 2582 2336 
C 2582 2077 2318 2100 1682 2018 
C 1034 1934 327 1791 327 991 
C 327 309 855 -82 1518 -82 
z
M 1600 400 
C 1173 400 864 591 864 964 
C 864 1373 1236 1500 1655 1555 
C 1882 1582 2491 1645 2582 1755 
L 2582 1264 
C 2582 827 2236 400 1600 400 
z
" transform="scale(0.015625)"/>
       <path id="Inter-Regular-67" d="M 1900 -1382 
C 2736 -1382 3409 -1000 3409 -100 
L 3409 3491 
L 2891 3491 
L 2891 2936 
L 2836 2936 
C 2718 3118 2500 3536 1818 3536 
C 936 3536 327 2836 327 1764 
C 327 673 964 55 1809 55 
C 2491 55 2709 455 2827 645 
L 2873 645 
L 2873 -64 
C 2873 -645 2464 -909 1900 -909 
C 1266 -909 1043 -575 900 -382 
L 473 -682 
C 691 -1048 1121 -1382 1900 -1382 
z
M 1882 536 
C 1209 536 864 1045 864 1773 
C 864 2482 1200 3055 1882 3055 
C 2536 3055 2882 2527 2882 1773 
C 2882 1000 2527 536 1882 536 
z
" transform="scale(0.015625)"/>
       <path id="Inter-Regular-20" transform="scale(0.015625)"/>
       <path id="Inter-Regular-73" d="M 2964 2709 
C 2796 3205 2418 3536 1727 3536 
C 991 3536 446 3118 446 2527 
C 446 2045 732 1723 1373 1573 
L 1955 1436 
C 2307 1355 2473 1186 2473 945 
C 2473 645 2155 400 1655 400 
C 1216 400 941 589 846 964 
L 336 836 
C 461 243 950 -73 1664 -73 
C 2475 -73 3027 370 3027 973 
C 3027 1459 2723 1766 2100 1918 
L 1582 2045 
C 1168 2148 982 2286 982 2555 
C 982 2855 1300 3073 1727 3073 
C 2196 3073 2389 2814 2482 2573 
L 2964 2709 
z
" transform="scale(0.015625)"/>
       <path id="Inter-Regular-6f" d="M 1909 -73 
C 2855 -73 3491 645 3491 1727 
C 3491 2818 2855 3536 1909 3536 
C 964 3536 327 2818 327 1727 
C 327 645 964 -73 1909 -73 
z
M 1909 409 
C 1191 409 864 1027 864 1727 
C 864 2427 1191 3055 1909 3055 
C 2627 3055 2955 2427 2955 1727 
C 2955 1027 2627 409 1909 409 
z
" transform="scale(0.015625)"/>
       <path id="Inter-Regular-28" d="M 682 1964 
C 682 818 991 -136 1546 -945 
L 2018 -945 
C 1582 -345 1236 882 1236 1964 
C 1236 3045 1582 4273 2018 4873 
L 1546 4873 
C 991 4064 682 3109 682 1964 
z
" transform="scale(0.015625)"/>
       <path id="Inter-Regular-25" d="M 2855 873 
C 2855 364 3173 -64 3764 -64 
C 4346 -64 4664 364 4664 873 
L 4664 1118 
C 4664 1627 4355 2055 3764 2055 
C 3182 2055 2855 1627 2855 1118 
L 2855 873 
z
M 536 3536 
C 536 3027 855 2600 1446 2600 
C 2027 2600 2346 3027 2346 3536 
L 2346 3782 
C 2346 4291 2036 4718 1446 4718 
C 864 4718 536 4291 536 3782 
L 536 3536 
z
M 709 0 
L 1227 0 
L 4427 4655 
L 3909 4655 
L 709 0 
z
M 3318 1118 
C 3318 1400 3446 1664 3764 1664 
C 4091 1664 4200 1400 4200 1118 
L 4200 873 
C 4200 591 4082 327 3764 327 
C 3436 327 3318 591 3318 873 
L 3318 1118 
z
M 1000 3782 
C 1000 4064 1127 4327 1446 4327 
C 1773 4327 1882 4064 1882 3782 
L 1882 3536 
C 1882 3255 1764 2991 1446 2991 
C 1118 2991 1000 3255 1000 3536 
L 1000 3782 
z
" transform="scale(0.015625)"/>
       <path id="Inter-Regular-29" d="M 1636 1964 
C 1636 3109 1327 4064 773 4873 
L 300 4873 
C 736 4273 1082 3045 1082 1964 
C 1082 882 736 -345 300 -945 
L 773 -945 
C 1327 -136 1636 818 1636 1964 
z
" transform="scale(0.015625)"/>
      </defs>
      <use xlink:href="#Inter-Regular-41"/>
      <use xlink:href="#Inter-Regular-76" x="67.613647"/>
      <use xlink:href="#Inter-Regular-65" x="123.295471"/>
      <use xlink:href="#Inter-Regular-72" x="181.534119"/>
      <use xlink:href="#Inter-Regular-61" x="218.750031"/>
      <use xlink:href="#Inter-Regular-67" x="275.14209"/>
      <use xlink:href="#Inter-Regular-65" x="336.079605"/>
      <use xlink:href="#Inter-Regular-20" x="394.318253"/>
      <use xlink:href="#Inter-Regular-50" x="422.443253"/>
      <use xlink:href="#Inter-Regular-72" x="485.937576"/>
      <use xlink:href="#Inter-Regular-65" x="523.153488"/>
      <use xlink:href="#Inter-Regular-63" x="581.392136"/>
      <use xlink:href="#Inter-Regular-69" x="637.216003"/>
      <use xlink:href="#Inter-Regular-73" x="660.937592"/>
      <use xlink:href="#Inter-Regular-69" x="713.210327"/>
      <use xlink:href="#Inter-Regular-6f" x="736.931915"/>
      <use xlink:href="#Inter-Regular-6e" x="796.591019"/>
      <use xlink:href="#Inter-Regular-20" x="855.113754"/>
      <use xlink:href="#Inter-Regular-28" x="883.238754"/>
      <use xlink:href="#Inter-Regular-25" x="919.460342"/>
      <use xlink:href="#Inter-Regular-29" x="1000.710358"/>
     </g>
    </g>
   </g>
   <g id="patch_3">
    <path d="M 57.6 307.584 
L 57.6 41.472 
" style="fill: none; stroke: #000000; stroke-width: 0.8; stroke-linejoin: miter; stroke-linecap: square"/>
   </g>
   <g id="patch_4">
    <path d="M 414.72 307.584 
L 414.72 41.472 
" style="fill: none; stroke: #000000; stroke-width: 0.8; stroke-linejoin: miter; stroke-linecap: square"/>
   </g>
   <g id="patch_5">
    <path d="M 57.6 307.584 
L 414.72 307.584 
" style="fill: none; stroke: #000000; stroke-width: 0.8; stroke-linejoin: miter; stroke-linecap: square"/>
   </g>
   <g id="patch_6">
    <path d="M 57.6 41.472 
L 414.72 41.472 
" style="fill: none; stroke: #000000; stroke-width: 0.8; stroke-linejoin: miter; stroke-linecap: square"/>
   </g>
   <g id="line2d_37">
    <path d="M -1 60.655238 
L 1.429869 59.85847 
L 7.531417 60.648795 
L 10.582191 62.368683 
L 13.632965 63.870052 
L 19.734513 63.866173 
L 22.785286 63.63929 
L 25.83606 63.288862 
L 28.886834 64.353636 
L 31.937608 63.349276 
L 34.988382 65.980935 
L 44.140704 66.70923 
L 50.242251 66.19192 
L 53.293025 65.474729 
L 56.343799 66.076583 
L 59.394573 66.035804 
L 62.445347 66.420548 
L 65.496121 66.092972 
L 68.546894 66.663499 
L 71.597668 68.236548 
L 74.648442 68.061269 
L 83.800764 67.842746 
L 86.851538 68.013398 
L 89.902312 68.068459 
L 92.953085 69.127399 
L 96.003859 68.871598 
L 99.054633 69.192162 
L 102.105407 69.312994 
L 105.156181 68.994487 
L 108.206955 69.399528 
L 111.257729 69.42501 
L 114.308503 70.034696 
L 117.359276 71.522698 
L 120.41005 72.321256 
L 123.460824 72.018446 
L 126.511598 71.976423 
L 129.562372 71.658681 
L 132.613146 71.953374 
L 135.66392 71.919511 
L 138.714693 73.050063 
L 141.765467 72.772002 
L 144.816241 72.613811 
L 153.968563 72.489381 
L 157.019337 73.221182 
L 160.070111 72.909173 
L 163.120884 73.006815 
L 166.171658 73.302044 
L 169.222432 73.758134 
L 175.32398 73.805898 
L 178.374754 73.715956 
L 184.476302 73.983766 
L 187.527075 73.978431 
L 190.577849 74.333424 
L 193.628623 74.931686 
L 196.679397 75.078249 
L 199.730171 76.051807 
L 202.780945 76.433461 
L 205.831719 76.566428 
L 208.882492 76.512542 
L 214.98404 76.985056 
L 218.034814 77.915937 
L 221.085588 78.144425 
L 224.136362 78.154731 
L 227.187136 78.685548 
L 236.339457 78.953876 
L 242.441005 78.78854 
L 245.491779 78.973498 
L 248.542553 79.036054 
L 251.593327 79.419063 
L 254.644101 80.167225 
L 257.694874 80.428009 
L 260.745648 80.400983 
L 263.796422 80.998034 
L 266.847196 80.643054 
L 269.89797 80.779612 
L 272.948744 80.772326 
L 275.999518 81.741878 
L 279.050291 82.49902 
L 282.101065 82.473868 
L 285.151839 82.875034 
L 288.202613 82.839322 
L 294.304161 83.764319 
L 297.354935 83.667185 
L 300.405709 83.738015 
L 303.456482 84.484365 
L 312.608804 86.092998 
L 315.659578 86.098858 
L 321.761126 86.653871 
L 324.811899 86.663157 
L 327.862673 86.999699 
L 330.913447 87.124673 
L 333.964221 87.743555 
L 337.014995 88.174205 
L 340.065769 88.85954 
L 343.116543 89.159749 
L 346.167317 89.111607 
L 349.21809 89.725216 
L 355.319638 90.235834 
L 364.47196 90.645479 
L 367.522734 90.9326 
L 370.573508 90.935046 
L 373.624281 90.671025 
L 379.725829 90.750959 
L 382.776603 91.349882 
L 385.827377 91.439723 
L 388.878151 91.771927 
L 391.928925 91.861138 
L 394.979698 92.213593 
L 398.030472 92.999745 
L 404.13202 93.696647 
L 407.182794 93.593819 
L 413.284342 94.598384 
L 416.335116 94.778708 
L 419.385889 94.748489 
L 425.487437 95.2681 
L 431.588985 96.711904 
L 437.690533 96.566394 
L 440.741307 96.683447 
L 443.79208 97.095372 
L 446.842854 97.835857 
L 452.944402 97.919772 
L 455.995176 98.596198 
L 461.8 99.218562 
L 461.8 99.218562 
" clip-path="url(#p2966cdca96)" style="fill: none; stroke: #d81b60; stroke-width: 1.5; stroke-linecap: square"/>
   </g>
   <g id="line2d_38">
    <path d="M -1 62.80878 
L 1.429869 62.276354 
L 4.480643 65.33373 
L 7.531417 64.395964 
L 10.582191 70.0561 
L 13.632965 70.460479 
L 16.683739 68.806635 
L 19.734513 68.854084 
L 22.785286 69.247033 
L 25.83606 68.604561 
L 28.886834 69.235791 
L 31.937608 70.154869 
L 34.988382 70.010297 
L 38.039156 70.714358 
L 41.08993 70.2529 
L 44.140704 69.584288 
L 47.191477 69.741729 
L 50.242251 70.851415 
L 53.293025 71.102022 
L 56.343799 71.693016 
L 59.394573 74.10757 
L 62.445347 75.937614 
L 65.496121 75.906709 
L 68.546894 76.316339 
L 71.597668 76.215396 
L 74.648442 76.43512 
L 77.699216 77.247188 
L 80.74999 76.579295 
L 83.800764 78.374804 
L 86.851538 78.051249 
L 89.902312 78.547083 
L 96.003859 78.239729 
L 105.156181 78.07779 
L 108.206955 78.576967 
L 111.257729 78.934993 
L 114.308503 78.965335 
L 120.41005 79.396085 
L 123.460824 80.186003 
L 126.511598 81.212567 
L 129.562372 82.087634 
L 132.613146 82.107725 
L 135.66392 83.147422 
L 138.714693 83.378783 
L 141.765467 83.361279 
L 144.816241 84.208807 
L 147.867015 85.24549 
L 150.917789 85.237711 
L 153.968563 85.59592 
L 160.070111 85.231465 
L 163.120884 86.655103 
L 166.171658 86.879756 
L 172.273206 87.652494 
L 175.32398 88.486924 
L 178.374754 88.412391 
L 181.425528 88.982363 
L 184.476302 88.506853 
L 187.527075 88.306032 
L 193.628623 88.623528 
L 196.679397 89.435863 
L 199.730171 89.350908 
L 205.831719 89.482916 
L 208.882492 90.3859 
L 211.933266 89.846324 
L 214.98404 89.788202 
L 218.034814 90.845338 
L 221.085588 91.127309 
L 224.136362 90.775175 
L 230.23791 90.978894 
L 233.288683 90.752635 
L 236.339457 91.857657 
L 239.390231 91.906919 
L 242.441005 92.879735 
L 248.542553 94.288056 
L 254.644101 96.211081 
L 257.694874 96.828712 
L 260.745648 97.153419 
L 263.796422 97.662505 
L 266.847196 97.794518 
L 269.89797 97.681872 
L 272.948744 97.798621 
L 275.999518 98.437053 
L 279.050291 98.326446 
L 282.101065 98.59545 
L 285.151839 99.087628 
L 288.202613 98.797938 
L 291.253387 99.475973 
L 294.304161 99.497578 
L 297.354935 100.017335 
L 300.405709 100.076351 
L 303.456482 101.285444 
L 306.507256 101.247572 
L 309.55803 101.63276 
L 312.608804 102.345516 
L 315.659578 103.255873 
L 318.710352 103.317118 
L 321.761126 103.161134 
L 324.811899 103.170016 
L 327.862673 104.213112 
L 330.913447 104.122706 
L 333.964221 104.321783 
L 337.014995 104.342412 
L 340.065769 104.499307 
L 343.116543 104.791639 
L 349.21809 105.152446 
L 352.268864 105.531253 
L 355.319638 105.408717 
L 358.370412 105.457442 
L 361.421186 106.300548 
L 364.47196 106.749353 
L 367.522734 107.030227 
L 370.573508 107.06521 
L 373.624281 107.555394 
L 376.675055 108.201414 
L 379.725829 108.697605 
L 382.776603 108.897428 
L 388.878151 109.846114 
L 391.928925 109.803551 
L 394.979698 110.280324 
L 404.13202 111.142496 
L 407.182794 111.234777 
L 410.233568 111.888979 
L 413.284342 112.026634 
L 419.385889 112.804114 
L 425.487437 113.752281 
L 428.538211 114.004392 
L 431.588985 113.812289 
L 434.639759 114.321154 
L 443.79208 114.953511 
L 446.842854 115.420704 
L 449.893628 115.557268 
L 452.944402 115.526607 
L 455.995176 116.117207 
L 459.04595 116.3077 
L 461.8 116.595516 
L 461.8 116.595516 
" clip-path="url(#p2966cdca96)" style="fill: none; stroke: #1e88e5; stroke-width: 1.5; stroke-linecap: square"/>
   </g>
   <g id="line2d_39">
    <path d="M -1 272.492314 
L 1.429869 269.823267 
L 4.480643 267.403504 
L 7.531417 263.991112 
L 10.582191 263.597011 
L 13.632965 261.910562 
L 16.683739 259.065685 
L 19.734513 256.71214 
L 22.785286 256.11461 
L 25.83606 254.057865 
L 28.886834 250.116467 
L 31.937608 248.231026 
L 34.988382 247.343783 
L 38.039156 247.946907 
L 41.08993 244.88817 
L 44.140704 241.534109 
L 47.191477 239.758356 
L 50.242251 238.737957 
L 53.293025 237.064466 
L 56.343799 237.236395 
L 59.394573 235.114775 
L 62.445347 233.472153 
L 65.496121 231.195924 
L 68.546894 229.204919 
L 71.597668 227.35339 
L 74.648442 226.341644 
L 77.699216 226.520817 
L 80.74999 225.578958 
L 83.800764 225.411074 
L 86.851538 224.3081 
L 89.902312 223.846982 
L 92.953085 222.727855 
L 96.003859 222.070356 
L 99.054633 219.511753 
L 102.105407 217.619818 
L 105.156181 215.43768 
L 108.206955 213.500184 
L 111.257729 211.952391 
L 114.308503 210.001992 
L 117.359276 207.816295 
L 120.41005 206.591409 
L 123.460824 204.529026 
L 126.511598 203.597052 
L 129.562372 203.616711 
L 135.66392 201.411836 
L 138.714693 200.046929 
L 141.765467 200.156711 
L 144.816241 199.464564 
L 150.917789 197.181558 
L 153.968563 196.889412 
L 157.019337 196.206129 
L 160.070111 194.603645 
L 163.120884 194.514436 
L 166.171658 194.073514 
L 169.222432 193.745845 
L 172.273206 192.427099 
L 175.32398 192.551161 
L 181.425528 191.576269 
L 184.476302 191.447653 
L 187.527075 191.062301 
L 190.577849 190.313008 
L 196.679397 190.229659 
L 202.780945 189.420237 
L 205.831719 188.255726 
L 211.933266 187.889441 
L 214.98404 188.162888 
L 218.034814 187.773365 
L 221.085588 186.675398 
L 224.136362 186.520794 
L 227.187136 185.695915 
L 230.23791 185.723987 
L 233.288683 185.258761 
L 236.339457 184.931811 
L 239.390231 184.822975 
L 242.441005 186.01772 
L 245.491779 185.355965 
L 248.542553 185.903932 
L 251.593327 186.260136 
L 254.644101 185.708498 
L 257.694874 184.970209 
L 260.745648 184.600839 
L 266.847196 184.220206 
L 269.89797 184.178281 
L 272.948744 183.867243 
L 275.999518 182.937822 
L 285.151839 180.975872 
L 288.202613 180.913732 
L 291.253387 179.919737 
L 294.304161 180.004003 
L 297.354935 179.693732 
L 300.405709 180.080214 
L 303.456482 180.298535 
L 306.507256 179.84839 
L 309.55803 179.603064 
L 312.608804 179.019341 
L 318.710352 178.914974 
L 324.811899 178.545289 
L 327.862673 178.600178 
L 330.913447 178.247507 
L 333.964221 178.134626 
L 337.014995 178.145813 
L 343.116543 177.590151 
L 346.167317 176.953956 
L 355.319638 175.701321 
L 358.370412 175.150029 
L 361.421186 175.673783 
L 367.522734 175.302048 
L 370.573508 174.644209 
L 376.675055 173.825162 
L 379.725829 173.543995 
L 385.827377 172.525206 
L 388.878151 172.352671 
L 391.928925 172.497956 
L 401.081246 171.884411 
L 404.13202 171.4928 
L 407.182794 171.40768 
L 410.233568 170.876509 
L 413.284342 171.208856 
L 416.335116 171.043316 
L 419.385889 171.078196 
L 425.487437 170.884667 
L 428.538211 170.362203 
L 437.690533 170.219311 
L 440.741307 169.868942 
L 443.79208 169.687804 
L 446.842854 169.877102 
L 449.893628 169.947583 
L 455.995176 169.112151 
L 461.8 169.33166 
L 461.8 169.33166 
" clip-path="url(#p2966cdca96)" style="fill: none; stroke: #ffc107; stroke-width: 1.5; stroke-linecap: square"/>
   </g>
   <g id="line2d_40">
    <path d="M -1 118.54668 
L 1.429869 120.686696 
L 4.480643 120.454701 
L 7.531417 118.714686 
L 10.582191 120.221744 
L 13.632965 121.020948 
L 16.683739 122.013813 
L 22.785286 121.764274 
L 25.83606 121.051987 
L 28.886834 122.371012 
L 31.937608 125.36 
L 34.988382 127.610369 
L 38.039156 129.290974 
L 41.08993 128.089439 
L 44.140704 132.507036 
L 47.191477 131.529604 
L 50.242251 130.893707 
L 56.343799 129.91102 
L 59.394573 128.603848 
L 62.445347 128.569811 
L 65.496121 128.156705 
L 71.597668 130.697106 
L 74.648442 131.203703 
L 77.699216 131.852254 
L 80.74999 131.541422 
L 83.800764 131.351431 
L 86.851538 131.931148 
L 89.902312 131.910691 
L 92.953085 131.2569 
L 96.003859 132.197441 
L 99.054633 131.818873 
L 102.105407 131.853713 
L 105.156181 132.518761 
L 108.206955 132.179286 
L 114.308503 133.501202 
L 117.359276 133.516687 
L 120.41005 134.407264 
L 123.460824 133.227553 
L 126.511598 133.158804 
L 129.562372 133.956066 
L 132.613146 133.416712 
L 135.66392 134.689011 
L 138.714693 135.148951 
L 141.765467 135.324093 
L 144.816241 136.731478 
L 147.867015 138.264915 
L 150.917789 137.950855 
L 153.968563 137.457683 
L 157.019337 136.807025 
L 160.070111 136.565597 
L 163.120884 136.677652 
L 166.171658 137.123657 
L 169.222432 138.045004 
L 178.374754 137.937978 
L 181.425528 138.770548 
L 184.476302 138.416636 
L 187.527075 138.620879 
L 190.577849 138.982683 
L 193.628623 139.698114 
L 196.679397 139.48674 
L 199.730171 139.936414 
L 202.780945 139.803592 
L 205.831719 138.801042 
L 208.882492 139.140222 
L 211.933266 139.608217 
L 214.98404 139.722273 
L 218.034814 139.45597 
L 221.085588 140.102804 
L 224.136362 140.130823 
L 230.23791 140.87641 
L 239.390231 141.506338 
L 242.441005 142.007174 
L 245.491779 142.304412 
L 248.542553 142.789111 
L 251.593327 142.574478 
L 254.644101 142.722615 
L 257.694874 142.602468 
L 260.745648 142.816421 
L 263.796422 143.527963 
L 266.847196 144.011703 
L 272.948744 144.132606 
L 275.999518 144.249846 
L 279.050291 144.531681 
L 282.101065 144.603862 
L 285.151839 144.238551 
L 288.202613 143.986766 
L 291.253387 143.969521 
L 294.304161 143.791189 
L 297.354935 144.172601 
L 300.405709 143.877784 
L 303.456482 143.301184 
L 306.507256 143.775589 
L 309.55803 144.007663 
L 312.608804 144.799614 
L 324.811899 145.253688 
L 330.913447 144.857915 
L 333.964221 145.059566 
L 337.014995 145.100692 
L 340.065769 145.47632 
L 346.167317 145.889233 
L 349.21809 145.758835 
L 352.268864 145.961107 
L 355.319638 146.030776 
L 358.370412 145.8472 
L 361.421186 146.046297 
L 364.47196 146.755004 
L 367.522734 147.313996 
L 370.573508 147.602706 
L 373.624281 147.503668 
L 376.675055 147.740053 
L 382.776603 147.806261 
L 385.827377 148.391476 
L 388.878151 148.376786 
L 391.928925 148.234745 
L 394.979698 148.493256 
L 401.081246 148.250427 
L 404.13202 148.428551 
L 407.182794 148.040225 
L 410.233568 148.003186 
L 416.335116 148.531549 
L 419.385889 149.279442 
L 425.487437 148.848963 
L 428.538211 149.121386 
L 431.588985 148.725676 
L 434.639759 148.965866 
L 437.690533 149.012601 
L 440.741307 148.718386 
L 443.79208 148.554148 
L 446.842854 148.969344 
L 452.944402 149.144581 
L 455.995176 148.82249 
L 459.04595 149.383671 
L 461.8 149.773094 
L 461.8 149.773094 
" clip-path="url(#p2966cdca96)" style="fill: none; stroke: #48820c; stroke-width: 1.5; stroke-linecap: square"/>
   </g>
   <g id="line2d_41">
    <path d="M -1 216.187257 
L 1.429869 216.187257 
L 4.480643 223.192403 
L 7.531417 220.416411 
L 10.582191 220.548544 
L 13.632965 218.224174 
L 16.683739 217.707431 
L 19.734513 222.260347 
L 22.785286 222.126045 
L 25.83606 222.783107 
L 28.886834 225.255044 
L 31.937608 226.756645 
L 34.988382 224.456977 
L 38.039156 223.488755 
L 41.08993 221.255636 
L 44.140704 222.898179 
L 47.191477 221.610115 
L 50.242251 222.453829 
L 53.293025 220.270177 
L 56.343799 222.122673 
L 59.394573 220.816506 
L 62.445347 221.221875 
L 65.496121 221.265602 
L 68.546894 220.774135 
L 71.597668 218.740716 
L 74.648442 219.320574 
L 77.699216 218.72272 
L 80.74999 216.480296 
L 83.800764 218.060916 
L 86.851538 216.877143 
L 89.902312 218.775009 
L 92.953085 217.576974 
L 96.003859 218.698204 
L 99.054633 219.138515 
L 102.105407 220.370966 
L 105.156181 220.095871 
L 108.206955 219.201431 
L 111.257729 218.638566 
L 117.359276 217.288069 
L 120.41005 217.314939 
L 123.460824 216.882884 
L 126.511598 218.378464 
L 129.562372 218.076568 
L 135.66392 218.482272 
L 138.714693 218.406472 
L 141.765467 217.543108 
L 144.816241 217.042967 
L 150.917789 218.060675 
L 153.968563 217.345627 
L 157.019337 217.129142 
L 160.070111 217.513854 
L 163.120884 217.024726 
L 166.171658 217.694479 
L 169.222432 217.663712 
L 172.273206 218.888662 
L 178.374754 217.137538 
L 184.476302 217.374346 
L 187.527075 216.754119 
L 190.577849 216.937342 
L 193.628623 216.777665 
L 196.679397 216.130418 
L 199.730171 216.387662 
L 202.780945 216.51578 
L 205.831719 216.834884 
L 208.882492 216.824562 
L 211.933266 217.631027 
L 214.98404 217.451345 
L 218.034814 216.359487 
L 221.085588 216.381105 
L 224.136362 216.873734 
L 227.187136 216.364816 
L 230.23791 217.167553 
L 233.288683 216.888353 
L 236.339457 216.176921 
L 239.390231 216.889273 
L 242.441005 216.719516 
L 245.491779 216.690158 
L 248.542553 216.346932 
L 254.644101 216.475851 
L 257.694874 216.058346 
L 260.745648 215.876206 
L 263.796422 216.287707 
L 272.948744 216.10287 
L 275.999518 216.716124 
L 279.050291 216.571976 
L 282.101065 215.817036 
L 285.151839 215.827528 
L 291.253387 215.216445 
L 297.354935 215.184032 
L 306.507256 214.191852 
L 309.55803 214.515671 
L 312.608804 214.308906 
L 315.659578 213.842409 
L 318.710352 214.011696 
L 321.761126 213.974731 
L 327.862673 214.602088 
L 330.913447 215.297818 
L 337.014995 214.365591 
L 340.065769 214.151783 
L 343.116543 213.674522 
L 346.167317 213.744569 
L 349.21809 213.672328 
L 352.268864 213.432921 
L 355.319638 213.388132 
L 358.370412 213.981641 
L 361.421186 214.270176 
L 364.47196 214.067608 
L 367.522734 214.013751 
L 373.624281 215.124249 
L 376.675055 214.817251 
L 379.725829 214.798234 
L 382.776603 215.112112 
L 385.827377 215.075618 
L 388.878151 215.198349 
L 391.928925 214.988649 
L 394.979698 215.092285 
L 398.030472 214.869569 
L 404.13202 215.10658 
L 407.182794 214.907689 
L 410.233568 214.458305 
L 413.284342 214.361118 
L 416.335116 214.576032 
L 419.385889 214.968011 
L 422.436663 214.50621 
L 425.487437 214.928308 
L 428.538211 214.776398 
L 434.639759 215.509334 
L 440.741307 216.206834 
L 443.79208 215.767277 
L 446.842854 215.922638 
L 449.893628 215.674142 
L 452.944402 215.79404 
L 455.995176 216.111803 
L 459.04595 216.162081 
L 461.8 215.811518 
L 461.8 215.811518 
" clip-path="url(#p2966cdca96)" style="fill: none; stroke: #690455; stroke-width: 1.5; stroke-linecap: square"/>
   </g>
   <g id="legend_1">
    <g id="patch_7">
     <path d="M 64.6 302.584 
L 319.423437 302.584 
Q 321.423437 302.584 321.423437 300.584 
L 321.423437 258.62775 
Q 321.423437 256.62775 319.423437 256.62775 
L 64.6 256.62775 
Q 62.6 256.62775 62.6 258.62775 
L 62.6 300.584 
Q 62.6 302.584 64.6 302.584 
z
" style="fill: #ffffff; opacity: 0.8; stroke: #cccccc; stroke-linejoin: miter"/>
    </g>
    <g id="text_21">
     <!-- Method -->
     <g transform="translate(173.794531 267.901187) scale(0.1 -0.1)">
      <defs>
       <path id="Inter-Regular-4d" d="M 564 4655 
L 564 0 
L 1091 0 
L 1091 3536 
L 1136 3536 
L 2591 0 
L 3100 0 
L 4555 3536 
L 4600 3536 
L 4600 0 
L 5127 0 
L 5127 4655 
L 4455 4655 
L 2873 791 
L 2818 791 
L 1236 4655 
L 564 4655 
z
" transform="scale(0.015625)"/>
       <path id="Inter-Regular-68" d="M 1027 2100 
C 1027 2709 1416 3055 1946 3055 
C 2450 3055 2755 2736 2755 2182 
L 2755 0 
L 3291 0 
L 3291 2218 
C 3291 3116 2814 3536 2100 3536 
C 1550 3536 1236 3307 1073 2945 
L 1027 2945 
L 1027 4655 
L 491 4655 
L 491 0 
L 1027 0 
L 1027 2100 
z
" transform="scale(0.015625)"/>
       <path id="Inter-Regular-64" d="M 1809 -73 
C 2482 -73 2709 345 2827 536 
L 2891 536 
L 2891 0 
L 3409 0 
L 3409 4655 
L 2873 4655 
L 2873 2936 
L 2827 2936 
C 2709 3118 2500 3536 1818 3536 
C 936 3536 327 2836 327 1736 
C 327 627 936 -73 1809 -73 
z
M 1882 409 
C 1209 409 864 1000 864 1745 
C 864 2482 1200 3055 1882 3055 
C 2536 3055 2882 2527 2882 1745 
C 2882 955 2527 409 1882 409 
z
" transform="scale(0.015625)"/>
      </defs>
      <use xlink:href="#Inter-Regular-4d"/>
      <use xlink:href="#Inter-Regular-65" x="88.920471"/>
      <use xlink:href="#Inter-Regular-74" x="147.159119"/>
      <use xlink:href="#Inter-Regular-68" x="183.522766"/>
      <use xlink:href="#Inter-Regular-6f" x="242.613693"/>
      <use xlink:href="#Inter-Regular-64" x="302.272797"/>
     </g>
    </g>
    <g id="line2d_42">
     <path d="M 66.6 278.719937 
L 76.6 278.719937 
L 86.6 278.719937 
" style="fill: none; stroke: #d81b60; stroke-width: 1.5; stroke-linecap: square"/>
    </g>
    <g id="text_22">
     <!-- INTREPPPID -->
     <g transform="translate(94.6 282.219937) scale(0.1 -0.1)">
      <defs>
       <path id="Inter-Regular-49" d="M 1127 4655 
L 564 4655 
L 564 0 
L 1127 0 
L 1127 4655 
z
" transform="scale(0.015625)"/>
       <path id="Inter-Regular-4e" d="M 4255 4655 
L 3700 4655 
L 3700 991 
L 3655 991 
L 1109 4655 
L 564 4655 
L 564 0 
L 1127 0 
L 1127 3655 
L 1173 3655 
L 3709 0 
L 4255 0 
L 4255 4655 
z
" transform="scale(0.015625)"/>
       <path id="Inter-Regular-54" d="M 309 4155 
L 1773 4155 
L 1773 0 
L 2336 0 
L 2336 4155 
L 3800 4155 
L 3800 4655 
L 309 4655 
L 309 4155 
z
" transform="scale(0.015625)"/>
       <path id="Inter-Regular-52" d="M 564 0 
L 1127 0 
L 1127 1818 
L 2146 1818 
C 2186 1818 2225 1818 2264 1820 
L 3246 0 
L 3900 0 
L 2848 1923 
C 3441 2125 3718 2609 3718 3227 
C 3718 4050 3227 4655 2136 4655 
L 564 4655 
L 564 0 
z
M 1127 2327 
L 1127 4155 
L 2118 4155 
C 2873 4155 3164 3786 3164 3227 
C 3164 2668 2873 2327 2127 2327 
L 1127 2327 
z
" transform="scale(0.015625)"/>
       <path id="Inter-Regular-45" d="M 564 0 
L 3409 0 
L 3409 500 
L 1127 500 
L 1127 2082 
L 3227 2082 
L 3227 2582 
L 1127 2582 
L 1127 4155 
L 3373 4155 
L 3373 4655 
L 564 4655 
L 564 0 
z
" transform="scale(0.015625)"/>
       <path id="Inter-Regular-44" d="M 2000 0 
C 3418 0 4218 882 4218 2336 
C 4218 3782 3418 4655 2064 4655 
L 564 4655 
L 564 0 
L 2000 0 
z
M 1127 500 
L 1127 4155 
L 2027 4155 
C 3118 4155 3673 3464 3673 2336 
C 3673 1200 3118 500 1964 500 
L 1127 500 
z
" transform="scale(0.015625)"/>
      </defs>
      <use xlink:href="#Inter-Regular-49"/>
      <use xlink:href="#Inter-Regular-4e" x="26.420456"/>
      <use xlink:href="#Inter-Regular-54" x="101.704559"/>
      <use xlink:href="#Inter-Regular-52" x="165.909119"/>
      <use xlink:href="#Inter-Regular-45" x="229.82959"/>
      <use xlink:href="#Inter-Regular-50" x="289.630737"/>
      <use xlink:href="#Inter-Regular-50" x="353.125061"/>
      <use xlink:href="#Inter-Regular-50" x="416.619385"/>
      <use xlink:href="#Inter-Regular-49" x="480.113708"/>
      <use xlink:href="#Inter-Regular-44" x="506.534164"/>
     </g>
    </g>
    <g id="line2d_43">
     <path d="M 66.6 293.038687 
L 76.6 293.038687 
L 86.6 293.038687 
" style="fill: none; stroke: #1e88e5; stroke-width: 1.5; stroke-linecap: square"/>
    </g>
    <g id="text_23">
     <!-- RAPPPID -->
     <g transform="translate(94.6 296.538687) scale(0.1 -0.1)">
      <use xlink:href="#Inter-Regular-52"/>
      <use xlink:href="#Inter-Regular-41" x="63.920471"/>
      <use xlink:href="#Inter-Regular-50" x="131.534119"/>
      <use xlink:href="#Inter-Regular-50" x="195.028442"/>
      <use xlink:href="#Inter-Regular-50" x="258.522766"/>
      <use xlink:href="#Inter-Regular-49" x="322.01709"/>
      <use xlink:href="#Inter-Regular-44" x="348.437546"/>
     </g>
    </g>
    <g id="line2d_44">
     <path d="M 172.442187 278.719937 
L 182.442187 278.719937 
L 192.442187 278.719937 
" style="fill: none; stroke: #ffc107; stroke-width: 1.5; stroke-linecap: square"/>
    </g>
    <g id="text_24">
     <!-- D-SCRIPT -->
     <g transform="translate(200.442187 282.219937) scale(0.1 -0.1)">
      <defs>
       <path id="Inter-Regular-2d" d="M 2491 2245 
L 455 2245 
L 455 1745 
L 2491 1745 
L 2491 2245 
z
" transform="scale(0.015625)"/>
       <path id="Inter-Regular-53" d="M 3109 3491 
L 3655 3491 
C 3630 4193 2982 4718 2082 4718 
C 1191 4718 491 4200 491 3418 
C 491 2791 946 2418 1673 2209 
L 2246 2045 
C 2736 1909 3173 1736 3173 1273 
C 3173 764 2682 427 2036 427 
C 1482 427 991 673 946 1200 
L 364 1200 
C 418 436 1036 -82 2036 -82 
C 3109 -82 3718 509 3718 1264 
C 3718 2136 2891 2418 2409 2545 
L 1936 2673 
C 1591 2764 1036 2945 1036 3445 
C 1036 3891 1446 4218 2064 4218 
C 2627 4218 3055 3950 3109 3491 
z
" transform="scale(0.015625)"/>
       <path id="Inter-Regular-43" d="M 4309 3200 
C 4136 4155 3373 4718 2436 4718 
C 1246 4718 382 3800 382 2327 
C 382 855 1246 -64 2436 -64 
C 3373 -64 4136 500 4309 1455 
L 3746 1455 
C 3609 809 3055 464 2436 464 
C 1591 464 927 1118 927 2327 
C 927 3536 1591 4191 2436 4191 
C 3055 4191 3609 3845 3746 3200 
L 4309 3200 
z
" transform="scale(0.015625)"/>
      </defs>
      <use xlink:href="#Inter-Regular-44"/>
      <use xlink:href="#Inter-Regular-2d" x="71.875015"/>
      <use xlink:href="#Inter-Regular-53" x="117.897751"/>
      <use xlink:href="#Inter-Regular-43" x="181.676178"/>
      <use xlink:href="#Inter-Regular-52" x="254.403473"/>
      <use xlink:href="#Inter-Regular-49" x="318.323944"/>
      <use xlink:href="#Inter-Regular-50" x="344.7444"/>
      <use xlink:href="#Inter-Regular-54" x="408.238724"/>
     </g>
    </g>
    <g id="line2d_45">
     <path d="M 172.442187 293.038687 
L 182.442187 293.038687 
L 192.442187 293.038687 
" style="fill: none; stroke: #48820c; stroke-width: 1.5; stroke-linecap: square"/>
    </g>
    <g id="text_25">
     <!-- Richoux -->
     <g transform="translate(200.442187 296.538687) scale(0.1 -0.1)">
      <defs>
       <path id="Inter-Regular-75" d="M 2691 1427 
C 2691 773 2191 473 1791 473 
C 1346 473 1027 800 1027 1309 
L 1027 3491 
L 491 3491 
L 491 1273 
C 491 382 964 -45 1618 -45 
C 2146 -45 2491 236 2655 591 
L 2691 591 
L 2691 0 
L 3227 0 
L 3227 3491 
L 2691 3491 
L 2691 1427 
z
" transform="scale(0.015625)"/>
       <path id="Inter-Regular-78" d="M 891 3491 
L 273 3491 
L 1382 1745 
L 273 0 
L 891 0 
L 1727 1355 
L 2564 0 
L 3182 0 
L 2055 1745 
L 3182 3491 
L 2564 3491 
L 1727 2064 
L 891 3491 
z
" transform="scale(0.015625)"/>
      </defs>
      <use xlink:href="#Inter-Regular-52"/>
      <use xlink:href="#Inter-Regular-69" x="63.920471"/>
      <use xlink:href="#Inter-Regular-63" x="87.642059"/>
      <use xlink:href="#Inter-Regular-68" x="143.465927"/>
      <use xlink:href="#Inter-Regular-6f" x="202.556854"/>
      <use xlink:href="#Inter-Regular-75" x="262.215958"/>
      <use xlink:href="#Inter-Regular-78" x="320.312561"/>
     </g>
    </g>
    <g id="line2d_46">
     <path d="M 267.689062 278.719937 
L 277.689062 278.719937 
L 287.689062 278.719937 
" style="fill: none; stroke: #690455; stroke-width: 1.5; stroke-linecap: square"/>
    </g>
    <g id="text_26">
     <!-- PIPR -->
     <g transform="translate(295.689062 282.219937) scale(0.1 -0.1)">
      <use xlink:href="#Inter-Regular-50"/>
      <use xlink:href="#Inter-Regular-49" x="63.494324"/>
      <use xlink:href="#Inter-Regular-50" x="89.91478"/>
      <use xlink:href="#Inter-Regular-52" x="153.409103"/>
     </g>
    </g>
   </g>
  </g>
 </g>
 <defs>
  <clipPath id="p2966cdca96">
   <rect x="57.6" y="41.472" width="357.12" height="266.112"/>
  </clipPath>
 </defs>
</svg>
